<svg xmlns="http://www.w3.org/2000/svg" viewBox="0 0 756.64 123.29"><defs><style>.cls-1{fill:#60bea7;}.cls-1,.cls-2,.cls-3{fill-rule:evenodd;}.cls-2,.cls-6{fill:#56c3eb;}.cls-3{fill:#3176bc;}.cls-4{font-size:72px;fill:#323333;font-family:PingFangSC-Semibold-B5pc-H, PingFang SC;font-weight:700;}.cls-5{font-size:69px;}</style></defs><title>资源 6</title><g id="图层_2" data-name="图层 2"><g id="_" data-name="ͼ"><polygon class="cls-1" points="32.29 49.24 85.45 18.6 99.82 26.9 47.1 57.99 47.1 63.63 53.55 67.38 105.99 37.04 105.99 65.76 105.99 92.64 77.21 109.63 53.56 123.29 32.29 111.01 32.29 93.12 53.56 105.35 89.68 82.98 89.68 64.09 53.55 85 32.29 72.7 32.29 49.24"/><polygon class="cls-2" points="26.71 89.73 15.11 83.11 15.11 39.68 0.02 30.93 0.02 92.57 26.71 107.85 26.71 89.73"/><polygon class="cls-3" points="53.28 0 68.1 8.55 15.11 39.68 0 30.95 26.63 15.57 53.28 0.19 53.28 0"/><text></text><text class="cls-4" transform="translate(125.1 81.48)">H5S<tspan class="cls-5" x="143.06" y="0">视频平台</tspan><tspan x="419.06" y="0" xml:space="preserve">  WEB</tspan></text><rect class="cls-6" x="564.71" y="37.48" width="4.56" height="48.33" rx="2.28" ry="2.28"/></g></g></svg>