<?xml version="1.0" standalone="no"?>
<!DOCTYPE svg PUBLIC "-//W3C//DTD SVG 1.1//EN" "http://www.w3.org/Graphics/SVG/1.1/DTD/svg11.dtd" >
<!--
2013-9-30: Created.
-->
<svg>
<metadata>
Created by iconfont
</metadata>
<defs>

<font id="iconfont" horiz-adv-x="1024" >
  <font-face
    font-family="iconfont"
    font-weight="500"
    font-stretch="normal"
    units-per-em="1024"
    ascent="896"
    descent="-128"
  />
    <missing-glyph />
    
    <glyph glyph-name="jingyin" unicode="&#58949;" d="M526.336-28.16c-20.992 0-44.032 12.8-69.12 37.376l-182.784 182.784H192c-52.736 0-96.256 43.008-96.256 96.256V480.256c0 52.736 43.008 96.256 96.256 96.256h82.944l182.784 182.784c24.576 24.576 47.616 36.864 68.608 36.864 23.04 0 49.664-15.872 49.664-59.392v-704c0-45.056-26.624-60.928-49.664-60.928z"  horiz-adv-x="1024" />

    
    <glyph glyph-name="mn_shengyin_fill" unicode="&#58882;" d="M526.432-28.063999999999965c-20.96 0-44.16 12.576-68.96 37.344L274.752 192H192c-52.928 0-96 43.072-96 96V480c0 52.928 43.072 96 96 96h82.752l182.624 182.624c24.576 24.576 47.744 37.024 68.864 37.024C549.184 795.648 576 780 576 736v-704c0-44.352-26.72-60.064-49.568-60.064zM687.584 165.63199999999995a31.898 31.898 0 0 0-18.656 6.016c-14.336 10.304-17.632 30.304-7.328 44.672l12.672 17.344C707.392 278.55999999999995 736 317.376 736 384c0 69.024-25.344 102.528-57.44 144.928-5.664 7.456-11.328 15.008-16.928 22.784-10.304 14.336-7.04 34.336 7.328 44.672 14.368 10.368 34.336 7.04 44.672-7.328 5.248-7.328 10.656-14.464 15.968-21.504C764.224 521.7919999999999 800 474.496 800 384c0-87.648-39.392-141.12-74.144-188.32l-12.224-16.736c-6.272-8.704-16.064-13.312-26.048-13.312zM796.448 56.99199999999996a31.906 31.906 0 0 0-21.088 7.936c-13.28 11.648-14.624 31.872-2.976 45.152C836.608 183.32799999999997 896 267.13599999999997 896 384s-59.392 200.704-123.616 273.888c-11.648 13.312-10.304 33.504 2.976 45.184 13.216 11.648 33.44 10.336 45.152-2.944C889.472 621.44 960 522.4 960 384s-70.528-237.472-139.488-316.096c-6.368-7.232-15.2-10.912-24.064-10.912z"  horiz-adv-x="1024" />

    
    <glyph glyph-name="target-lock" unicode="&#59221;" d="M512 384m-128 0a128 128 0 1 1 256 0 128 128 0 1 1-256 0ZM554.666667 722.389333V810.666667h-85.333334v-88.277334A341.674667 341.674667 0 0 1 173.610667 426.666667H85.333333v-85.333334h88.277334A341.632 341.632 0 0 1 469.333333 45.610667000000035V-42.66666699999996h85.333334v88.277334A341.632 341.632 0 0 1 850.389333 341.33333300000004H938.666667v85.333334h-88.277334A341.674667 341.674667 0 0 1 554.666667 722.389333zM512 128c-141.184 0-256 114.816-256 256s114.816 256 256 256 256-114.816 256-256-114.816-256-256-256z"  horiz-adv-x="1024" />

    
    <glyph glyph-name="ditu" unicode="&#58954;" d="M848.48 300.8h-153.696a1573.12 1573.12 0 0 0-144.384-161.792L512 102.4l-38.4 36.608a1573.12 1573.12 0 0 0-144.384 161.792H175.52a32 32 0 0 1-29.824-20.448l-128.832-332.8A32 32 0 0 1 46.688-96h930.624a32 32 0 0 1 29.824 43.552l-128.832 332.8a32 32 0 0 1-29.824 20.448zM768 608A256 256 0 1 1 256 608c0-175.104 256-460.8 256-460.8s256 285.696 256 460.8zM409.6 608a102.4 102.4 0 1 0 204.8 0 102.4 102.4 0 0 0-204.8 0z"  horiz-adv-x="1024" />

    
    <glyph glyph-name="xianshi" unicode="&#59059;" d="M895.887692 385.191128l-0.12382 0c-61.560054 158.704558-210.064296 270.734074-383.779733 270.734074-173.684738 0-322.204329-112.030539-383.764384-270.734074l-0.109494 0c0.01535-0.063445 0.030699-0.109494 0.062422-0.155543-0.031722-0.047072-0.047072-0.094144-0.062422-0.141216l0.109494 0c61.560054-159.946852 210.064296-272.818549 383.764384-272.818549 173.715437 0 322.219679 112.87272 383.779733 272.818549l0.12382 0c-0.030699 0.047072-0.046049 0.094144-0.062422 0.141216C895.841643 385.081635 895.856993 385.127683 895.887692 385.191128zM511.984139 166.715255c-144.458089 0-268.829701 89.348957-327.077314 218.320331 58.248635 128.009466 182.619224 216.703507 327.077314 216.703507 144.473439 0 268.844028-88.694041 327.108013-216.703507C780.828167 256.064212 656.457578 166.715255 511.984139 166.715255zM623.779318 448.079434c0-35.302017-28.647457-63.950498-63.981197-63.950498-35.349089 0-63.981197 28.64848-63.981197 63.950498s28.632107 63.949474 63.981197 63.949474c0.177032 0 0.352017-0.01228 0.529049-0.013303-15.042601 5.599532-31.324426 8.667404-48.327682 8.667404-76.258825 0-138.084938-61.576427-138.084938-137.553842 0-75.986625 61.826114-137.562029 138.084938-137.562029 76.259848 0 138.084938 61.575404 138.084938 137.562029 0 32.108279-11.04352 61.644989-29.550013 85.049025C622.629121 461.855182 623.779318 455.102385 623.779318 448.079434z"  horiz-adv-x="1024" />

    
    <glyph glyph-name="jiankong1" unicode="&#59047;" d="M68.193 381.34l143.08-13.515v-171.21l227.332 56.152v62.137h-27.617v78.418l-130.542 20.913-74.315 70.331 23.679 147.906 442.187-70.826c3.097 11.14 6.975 21.379 11.442 30.399L188.752 671.26l80.419 141.682 54.123 20.673 462.513-74.073 43.734-7.006 49.718-7.953 76.704-12.297-2.766-70.511-85.544-93.994-38.608 5.413 18.702 116.741 72.3-11.576 1.007 25.302L816.1 720.469l-6.013-2.3-73.773-88.175c23.123-9.366 34.985-54.906 26.717-106.594-8.871-55.416-37.572-96.91-64.076-92.655-12.599 2.014-22.446 14.011-28.341 32.008l-7.036-43.9 73.142-77.697-191.581 30.685v-56.934h-26.055v-111.796l-307.812-76.042v-164.685L68.192-61.28V381.34h0.001z m653.794 193.22c-11.472 1.834-23.89-16.132-27.739-40.143-3.849-23.993 2.345-44.952 13.817-46.786 11.486-1.835 23.904 16.131 27.753 40.141 3.833 23.995-2.345 44.953-13.831 46.788z m-3.594-213.937l25.453-23.243 85.98 53.342 25.499 159.166-33.392 5.338-23.062-144.042-80.478-50.561z"  horiz-adv-x="1024" />

    
    <glyph glyph-name="fanhui" unicode="&#58948;" d="M213.39648 577.77664h381.78816c16.19968 0 32.4096 0.11264 48.60928-0.09216 57.24672-0.71168 113.67424-23.10144 157.56288-59.43296 90.9056-75.24864 117.5552-206.3872 66.02752-311.91552-42.55744-87.14752-134.2208-143.232-230.85568-143.232H184.3712c-33.01888 0-33.01888-51.2 0-51.2h382.52544c63.34976 0 124.7744-1.73568 185.07264 22.49216 107.70944 43.27424 178.8928 143.39072 191.744 257.55136 12.7488 113.31584-45.45536 223.62624-138.09664 286.61248-63.70304 43.3152-136.10496 50.41664-210.44224 50.41664H213.38624c-33.00864 0-33.00864-51.2 0.01024-51.2zM322.59584 785.6896a255707.4944 255707.4944 0 0 0-162.4064-162.5088c-9.86112-9.86112-9.86112-26.3424 0-36.20352 49.49504-49.49504 98.98496-98.98496 148.39296-148.48 23.32672-23.36256 59.50464 12.83584 36.14208 36.20352a225198.63296 225198.63296 0 0 1-148.33152 148.48v-36.20352c54.1696 54.1696 108.26752 108.3392 162.3552 162.5088 23.3728 23.36256-12.8256 59.56608-36.15232 36.20352z"  horiz-adv-x="1024" />

    
    <glyph glyph-name="ceju" unicode="&#59359;" d="M128.025 64.279h768.149v-63.919H128.025zM128.022 256.58l513.004 513.004 45.446-45.446-513.004-513.004zM218.9 256.89l44.79 44.79 135.766-135.766-44.79-44.79zM308.954 346.944l44.791 44.79 90.659-90.658-44.792-44.791zM399.481 437.47l45.263 45.263 90.659-90.659-45.263-45.263zM489.788 528.216l45.263 45.263 90.658-90.658-45.263-45.263zM580.536 618.52l45.263 45.264 151.466-151.467-45.263-45.263z"  horiz-adv-x="1024" />

    
    <glyph glyph-name="jia" unicode="&#58946;" d="M906.212134 330.267014 565.732986 330.267014 565.732986-10.212134C565.732986-30.013685 541.666486-63.972 511.97312-63.972 482.297674-63.972 458.213254-30.013685 458.213254-10.212134L458.213254 330.267014 117.734106 330.267014C97.950475 330.267014 63.97424 354.333514 63.97424 384.02688 63.97424 413.720246 97.950475 437.786746 117.734106 437.786746L458.213254 437.786746 458.213254 778.265894C458.213254 798.049525 482.297674 832.02576 511.97312 832.02576 541.666486 832.02576 565.732986 798.049525 565.732986 778.265894L565.732986 437.786746 906.212134 437.786746C925.995765 437.786746 959.972 413.720246 959.972 384.02688 959.972 354.333514 925.995765 330.267014 906.212134 330.267014Z"  horiz-adv-x="1024" />

    
    <glyph glyph-name="jian" unicode="&#58947;" d="M117.734106 437.786746 906.212134 437.786746C925.995765 437.786746 959.972 413.720246 959.972 384.02688 959.972 354.333514 925.995765 330.267014 906.212134 330.267014L117.734106 330.267014C97.950475 330.267014 63.97424 354.333514 63.97424 384.02688 63.97424 413.720246 97.950475 437.786746 117.734106 437.786746Z"  horiz-adv-x="1024" />

    
    <glyph glyph-name="shoucang" unicode="&#58942;" d="M877.278357 520.605238l-219.339544 31.618115-98.800213 199.579501c-5.929036 11.857049-19.761066 19.760043-33.593096 19.760043s-25.689079-7.902994-33.593096-21.735024l-94.850252-201.558575-219.339544-31.614022c-13.83203-1.974981-25.689079-11.857049-29.640064-25.689079-3.953032-13.83203 0-27.66406 9.878998-37.544081L318.061986 297.314709 288.419875 76.000184c-1.974981-13.831007 3.953032-27.66406 13.831007-35.571147 5.929036-3.948939 13.83203-7.902994 21.736047-7.902994 5.928013 0 11.857049 1.979074 17.785062 3.954055L529.494443 141.209348l185.747471-102.755292c5.928013-1.973958 11.857049-3.948939 17.785062-3.948939 19.761066 0 35.5691 15.805988 35.5691 37.543058l0 7.902994-29.639041 219.339544 158.082388 158.082388c9.877975 9.882068 13.83203 23.714098 9.877975 37.546128C900.992455 508.752282 891.110387 518.630257 877.278357 520.605238L877.278357 520.605238zM367.462093 301.265694c1.974981 11.857049-1.978051 25.689079-11.857049 33.593096L203.450668 473.184205l213.411531 29.640064c11.857049 1.974981 23.710005 9.877975 29.639041 21.735024l79.043241 183.77249 86.944188-179.818435c5.928013-11.857049 15.810081-19.761066 29.642111-21.74014l207.482495-33.589003L701.409884 330.908828c-9.877975-7.904017-13.83203-21.735024-9.877975-33.593096l23.710005-205.507514-167.961386 98.801237c-9.878998 5.928013-23.711028 3.953032-35.5691-1.974981l-171.914418-94.850252L367.462093 301.265694 367.462093 301.265694zM527.520485 735.505679 422.460708 532.891052 178.913832 483.772354 353.216647 307.763688 318.083475 68.310038 537.071002 170.640658 729.452567 78.5431 706.939831 301.623851 866.575598 471.49268 637.355009 512.424928Z"  horiz-adv-x="1024" />

    
    <glyph glyph-name="box-select" unicode="&#59281;" d="M951.5 580.8v240h-240v-95h-399v95h-240v-240h95v-393.6h-95v-240h240v95h399v-95h240v240h-95v393.6h95zM761.5 770.8h140v-140h-140v140zM122.5 630.8v140h140v-140h-140zM262.5-2.8h-140v140h140v-140zM901.5 137.2v-140h-140v140h140zM806.5 187.2h-95v-95h-399v95h-95v393.6h95v95h399v-95h95v-393.6z"  horiz-adv-x="1024" />

    
    <glyph glyph-name="sousuo" unicode="&#58945;" d="M473.832727 756.363636a334.196364 334.196364 0 1 1 236.450909-97.978181A333.265455 333.265455 0 0 1 473.832727 756.363636z m0-615.098181a280.901818 280.901818 0 1 0 277.178182 280.901818 280.669091 280.669091 0 0 0-277.178182-280.901818zM872.261818 81.454545l-72.843636 69.818182a41.658182 41.658182 0 0 1-58.181818 0 40.261818 40.261818 0 0 1-12.101819-28.625454 40.494545 40.494545 0 0 1 12.101819-28.625455L814.545455 23.505455a41.658182 41.658182 0 0 1 58.181818 0 39.563636 39.563636 0 0 1 11.636363 28.392727 40.261818 40.261818 0 0 1-12.101818 29.556363z"  horiz-adv-x="1024" />

    
    <glyph glyph-name="zanting" unicode="&#58978;" d="M1023.79 384c0-282.706-229.186-511.898-511.898-511.898C229.182-127.892 0 101.294 0 384 0 666.711 229.181 895.892 511.892 895.892 794.604 895.892 1023.79 666.711 1023.79 384zM433.92 555.52c0 25.452-20.628 46.08-46.08 46.08-25.452 0-46.08-20.628-46.08-46.08v-343.04c0-25.452 20.628-46.08 46.08-46.08 25.452 0 46.08 20.628 46.08 46.08V555.52z m247.68 0c0 25.452-20.628 46.08-46.08 46.08-25.452 0-46.08-20.628-46.08-46.08v-343.045c0-25.452 20.628-46.08 46.08-46.08 25.452 0 46.08 20.628 46.08 46.08V555.52z"  horiz-adv-x="1024" />

    
    <glyph glyph-name="bofang2" unicode="&#58981;" d="M511.996 894.72C229.933 894.72 1.276 666.063 1.276 384s228.657-510.72 510.72-510.72c282.07 0 510.72 228.657 510.72 510.72 0.004 282.067-228.65 510.72-510.72 510.72z m249.46-520.727c-25.906-15.157-329.382-192.31-344.566-201.08-18.953-10.96-38.122 2.982-38.122 21.717V597.6c0 20.641 21.186 30.664 37.342 21.583 22.07-12.371 326.692-190.424 345.345-201.534 16.733-9.969 17.006-33.703 0-43.656z"  horiz-adv-x="1024" />

    
    <glyph glyph-name="duihao" unicode="&#58967;" d="M512.653762-127.998047A511.791377 511.791377 0 0 0 313.345574 855.52276a512.105864 512.105864 0 0 0 398.616376-943.45886 508.786731 508.786731 0 0 0-199.308188-40.061947z m0 943.45886C274.285175 815.460813 80.986279 622.161917 80.986279 383.79333s193.298896-431.667483 431.667483-431.667482 431.667483 193.298896 431.667482 431.667482S751.022348 815.460813 512.653762 815.460813zM427.522124 180.478948a40.061947 40.061947 0 0 0-28.043364 12.018584L207.181413 384.794879a40.36742 40.36742 0 0 0 57.088275 57.088275l163.252436-164.253984 339.525003 339.525004a40.36742 40.36742 0 0 0 57.088275-57.088275L455.565487 192.497532a40.061947 40.061947 0 0 0-28.043363-12.018584z"  horiz-adv-x="1025" />

    
    <glyph glyph-name="jinyong" unicode="&#58968;" d="M512.653762-127.998047A511.791377 511.791377 0 0 0 313.345574 855.52276a512.105864 512.105864 0 0 0 398.616376-943.45886 508.786731 508.786731 0 0 0-199.308188-40.061947z m0 943.45886C274.285175 815.460813 80.986279 622.161917 80.986279 383.79333s193.298896-431.667483 431.667483-431.667482 431.667483 194.300445 431.667482 431.667482S750.0208 815.460813 512.653762 815.460813zM834.150889 22.234256a40.061947 40.061947 0 0 0-28.043363 12.018584L162.111722 677.247095a40.36742 40.36742 0 0 0 57.088275 57.088275l643.995804-643.995804a40.061947 40.061947 0 0 0-28.043363-68.10531z"  horiz-adv-x="1025" />

    
    <glyph glyph-name="tubiao_huaban1fuben1" unicode="&#58927;" d="M307.2 861.866667v-955.733334H34.133333V861.866667h273.066667m34.133333 34.133333H0v-1024h341.333333V896zM686.08 861.866667v-955.733334H337.92V861.866667h348.16m34.133333 34.133333H303.786667v-1024h416.426666V896zM989.866667 861.866667v-955.733334h-273.066667V861.866667h273.066667m34.133333 34.133333H682.666667v-1024h341.333333V896z"  horiz-adv-x="1024" />

    
    <glyph glyph-name="tubiao_huaban1fuben21" unicode="&#58930;" d="M498.346667 861.866667v-464.213334H34.133333V861.866667h464.213334m34.133333 34.133333H0v-532.48h532.48V896zM498.346667 370.346667V-93.866667H34.133333V370.346667h464.213334m34.133333 34.133333H0V-128h532.48V404.48zM989.866667 861.866667v-464.213334H525.653333V861.866667H989.866667m34.133333 34.133333H491.52v-532.48H1024V896zM989.866667 370.346667V-93.866667H525.653333V370.346667H989.866667m34.133333 34.133333H491.52V-128H1024V404.48z"  horiz-adv-x="1024" />

    
    <glyph glyph-name="tubiao_huaban1fuben51" unicode="&#58934;" d="M334.506667 861.866667v-300.373334H34.133333V861.866667h300.373334m34.133333 34.133333H0v-368.64h368.64V896zM662.186667 861.866667v-300.373334h-300.373334V861.866667h300.373334m34.133333 34.133333H327.68v-368.64h368.64V896zM989.866667 861.866667v-300.373334h-300.373334V861.866667H989.866667m34.133333 34.133333H655.36v-368.64H1024V896zM334.506667 534.1866669999999v-300.373334H34.133333v300.373334h300.373334m34.133333 34.133333H0v-368.64h368.64V568.3199999999999zM662.186667 534.1866669999999v-300.373334h-300.373334v300.373334h300.373334m34.133333 34.133333H327.68v-368.64h368.64V568.3199999999999zM989.866667 534.1866669999999v-300.373334h-300.373334v300.373334H989.866667m34.133333 34.133333H655.36v-368.64H1024V568.3199999999999zM334.506667 206.506667V-93.866667H34.133333v300.373334h300.373334m34.133333 34.133333H0V-128h368.64V240.64zM662.186667 206.506667V-93.866667h-300.373334v300.373334h300.373334m34.133333 34.133333H327.68V-128h368.64V240.64zM989.866667 206.506667V-93.866667h-300.373334v300.373334H989.866667m34.133333 34.133333H655.36V-128H1024V240.64z"  horiz-adv-x="1024" />

    
    <glyph glyph-name="tubiao_huaban1fuben71" unicode="&#58935;" d="M252.586667 861.866667v-218.453334H34.133333V861.866667h218.453334m34.133333 34.133333H0v-286.72h286.72V896zM498.346667 861.866667v-218.453334H279.893333V861.866667h218.453334m34.133333 34.133333H245.76v-286.72h286.72V896zM744.106667 861.866667v-218.453334h-218.453334V861.866667h218.453334m34.133333 34.133333h-286.72v-286.72h286.72V896zM989.866667 861.866667v-218.453334h-218.453334V861.866667H989.866667m34.133333 34.133333h-286.72v-286.72H1024V896zM252.586667 616.106667v-218.453334H34.133333V616.106667h218.453334m34.133333 34.133333H0v-286.72h286.72V650.24zM498.346667 616.106667v-218.453334H279.893333V616.106667h218.453334m34.133333 34.133333H245.76v-286.72h286.72V650.24zM744.106667 616.106667v-218.453334h-218.453334V616.106667h218.453334m34.133333 34.133333h-286.72v-286.72h286.72V650.24zM989.866667 616.106667v-218.453334h-218.453334V616.106667H989.866667m34.133333 34.133333h-286.72v-286.72H1024V650.24zM252.586667 370.346667v-218.453334H34.133333v218.453334h218.453334m34.133333 34.133333H0v-286.72h286.72v286.72zM498.346667 370.346667v-218.453334H279.893333v218.453334h218.453334m34.133333 34.133333H245.76v-286.72h286.72v286.72zM744.106667 370.346667v-218.453334h-218.453334v218.453334h218.453334m34.133333 34.133333h-286.72v-286.72h286.72v286.72zM989.866667 370.346667v-218.453334h-218.453334v218.453334H989.866667m34.133333 34.133333h-286.72v-286.72H1024v286.72zM252.586667 124.58666700000003V-93.866667H34.133333v218.453334h218.453334m34.133333 34.133333H0V-128h286.72v286.72zM498.346667 124.58666700000003V-93.866667H279.893333v218.453334h218.453334m34.133333 34.133333H245.76V-128h286.72v286.72zM744.106667 124.58666700000003V-93.866667h-218.453334v218.453334h218.453334m34.133333 34.133333h-286.72V-128h286.72v286.72zM989.866667 124.58666700000003V-93.866667h-218.453334v218.453334H989.866667m34.133333 34.133333h-286.72V-128H1024v286.72z"  horiz-adv-x="1024" />

    
    <glyph glyph-name="tubiao_huaban1fuben41" unicode="&#58936;" d="M334.506667 861.866667v-955.733334H34.133333V861.866667h300.373334m34.133333 34.133333H0v-1024h368.64V896zM662.186667 861.866667v-300.373334h-300.373334V861.866667h300.373334m34.133333 34.133333H327.68v-368.64h368.64V896zM662.186667 534.1866669999999v-300.373334h-300.373334v300.373334h300.373334m34.133333 34.133333H327.68v-368.64h368.64V568.3199999999999zM662.186667 206.506667V-93.866667h-300.373334v300.373334h300.373334m34.133333 34.133333H327.68V-128h368.64V240.64zM989.866667 861.866667v-300.373334h-300.373334V861.866667H989.866667m34.133333 34.133333H655.36v-368.64H1024V896zM989.866667 534.1866669999999v-300.373334h-300.373334v300.373334H989.866667m34.133333 34.133333H655.36v-368.64H1024V568.3199999999999zM989.866667 206.506667V-93.866667h-300.373334v300.373334H989.866667m34.133333 34.133333H655.36V-128H1024V240.64z"  horiz-adv-x="1024" />

    
    <glyph glyph-name="tubiao_huaban1fuben8" unicode="&#58937;" d="M204.8 861.866667v-170.666667H34.133333V861.866667h170.666667m34.133333 34.133333H0v-238.933333h238.933333V896zM399.36 861.866667v-170.666667h-170.666667V861.866667h170.666667m34.133333 34.133333h-238.933333v-238.933333h238.933333V896zM597.333333 861.866667v-170.666667h-170.666666V861.866667h170.666666m34.133334 34.133333h-238.933334v-238.933333h238.933334V896zM791.893333 861.866667v-170.666667h-170.666666V861.866667h170.666666m34.133334 34.133333h-238.933334v-238.933333h238.933334V896zM989.866667 861.866667v-170.666667h-170.666667V861.866667h170.666667m34.133333 34.133333h-238.933333v-238.933333h238.933333V896zM204.8 667.3066670000001v-170.666667H34.133333v170.666667h170.666667m34.133333 34.133333H0v-238.933333h238.933333v238.933333zM399.36 667.3066670000001v-170.666667h-170.666667v170.666667h170.666667m34.133333 34.133333h-238.933333v-238.933333h238.933333v238.933333zM597.333333 667.3066670000001v-170.666667h-170.666666v170.666667h170.666666m34.133334 34.133333h-238.933334v-238.933333h238.933334v238.933333zM791.893333 667.3066670000001v-170.666667h-170.666666v170.666667h170.666666m34.133334 34.133333h-238.933334v-238.933333h238.933334v238.933333zM989.866667 667.3066670000001v-170.666667h-170.666667v170.666667h170.666667m34.133333 34.133333h-238.933333v-238.933333h238.933333v238.933333zM204.8 469.333333v-170.666666H34.133333v170.666666h170.666667m34.133333 34.133334H0v-238.933334h238.933333v238.933334zM399.36 469.333333v-170.666666h-170.666667v170.666666h170.666667m34.133333 34.133334h-238.933333v-238.933334h238.933333v238.933334zM597.333333 469.333333v-170.666666h-170.666666v170.666666h170.666666m34.133334 34.133334h-238.933334v-238.933334h238.933334v238.933334zM791.893333 469.333333v-170.666666h-170.666666v170.666666h170.666666m34.133334 34.133334h-238.933334v-238.933334h238.933334v238.933334zM989.866667 469.333333v-170.666666h-170.666667v170.666666h170.666667m34.133333 34.133334h-238.933333v-238.933334h238.933333v238.933334zM204.8 274.773333v-170.666666H34.133333v170.666666h170.666667m34.133333 34.133334H0v-238.933334h238.933333v238.933334zM399.36 274.773333v-170.666666h-170.666667v170.666666h170.666667m34.133333 34.133334h-238.933333v-238.933334h238.933333v238.933334zM597.333333 274.773333v-170.666666h-170.666666v170.666666h170.666666m34.133334 34.133334h-238.933334v-238.933334h238.933334v238.933334zM791.893333 274.773333v-170.666666h-170.666666v170.666666h170.666666m34.133334 34.133334h-238.933334v-238.933334h238.933334v238.933334zM989.866667 274.773333v-170.666666h-170.666667v170.666666h170.666667m34.133333 34.133334h-238.933333v-238.933334h238.933333v238.933334zM204.8 76.79999999999995v-170.666667H34.133333v170.666667h170.666667m34.133333 34.133333H0v-238.933333h238.933333v238.933333zM399.36 76.79999999999995v-170.666667h-170.666667v170.666667h170.666667m34.133333 34.133333h-238.933333v-238.933333h238.933333v238.933333zM597.333333 76.79999999999995v-170.666667h-170.666666v170.666667h170.666666m34.133334 34.133333h-238.933334v-238.933333h238.933334v238.933333zM791.893333 76.79999999999995v-170.666667h-170.666666v170.666667h170.666666m34.133334 34.133333h-238.933334v-238.933333h238.933334v238.933333zM989.866667 76.79999999999995v-170.666667h-170.666667v170.666667h170.666667m34.133333 34.133333h-238.933333v-238.933333h238.933333v238.933333z"  horiz-adv-x="1024" />

    
    <glyph glyph-name="tubiao_huaban1fuben61" unicode="&#58938;" d="M252.586667 861.866667v-218.453334H34.133333V861.866667h218.453334m34.133333 34.133333H0v-286.72h286.72V896zM252.586667 616.106667v-218.453334H34.133333V616.106667h218.453334m34.133333 34.133333H0v-286.72h286.72V650.24zM252.586667 370.346667v-218.453334H34.133333v218.453334h218.453334m34.133333 34.133333H0v-286.72h286.72v286.72zM989.866667 861.866667v-218.453334h-218.453334V861.866667H989.866667m34.133333 34.133333h-286.72v-286.72H1024V896zM989.866667 616.106667v-218.453334h-218.453334V616.106667H989.866667m34.133333 34.133333h-286.72v-286.72H1024V650.24zM989.866667 370.346667v-218.453334h-218.453334v218.453334H989.866667m34.133333 34.133333h-286.72v-286.72H1024v286.72zM498.346667 861.866667v-218.453334H279.893333V861.866667h218.453334m34.133333 34.133333H245.76v-286.72h286.72V896zM744.106667 616.106667v-464.213334H279.893333V616.106667h464.213334m34.133333 34.133333H245.76v-532.48h532.48V650.24zM744.106667 861.866667v-218.453334h-218.453334V861.866667h218.453334m34.133333 34.133333h-286.72v-286.72h286.72V896zM252.586667 124.58666700000003V-93.866667H34.133333v218.453334h218.453334m34.133333 34.133333H0V-128h286.72v286.72zM989.866667 124.58666700000003V-93.866667h-218.453334v218.453334H989.866667m34.133333 34.133333h-286.72V-128H1024v286.72zM498.346667 124.58666700000003V-93.866667H279.893333v218.453334h218.453334m34.133333 34.133333H245.76V-128h286.72v286.72zM744.106667 124.58666700000003V-93.866667h-218.453334v218.453334h218.453334m34.133333 34.133333h-286.72V-128h286.72v286.72z"  horiz-adv-x="1024" />

    
    <glyph glyph-name="tubiao_huaban1fuben31" unicode="&#58939;" d="M334.506667 203.09333300000003V-93.866667H34.133333v296.96h300.373334m34.133333 34.133334H0V-128h368.64V237.22666700000002zM658.773333 203.09333300000003V-93.866667h-300.373333v296.96h300.373333m34.133334 34.133334H327.68V-128h368.64V237.22666700000002h-3.413333zM989.866667 206.506667V-93.866667h-300.373334v300.373334H989.866667m34.133333 34.133333H655.36V-128H1024V240.64zM989.866667 534.1866669999999v-300.373334h-300.373334v300.373334H989.866667m34.133333 34.133333H655.36v-368.64H1024V568.3199999999999zM989.866667 861.866667v-300.373334h-300.373334V861.866667H989.866667m34.133333 34.133333H655.36v-368.64H1024V896zM658.773333 861.866667v-628.053334H34.133333V861.866667h624.64m34.133334 34.133333H0v-696.32h692.906667V896z"  horiz-adv-x="1024" />

    
    <glyph glyph-name="tubiao_huaban11" unicode="&#58940;" d="M986.453333 858.453333v-948.906666H37.546667V858.453333h948.906666m34.133334 34.133334H3.413333v-1017.173334h1017.173334V892.586667z"  horiz-adv-x="1024" />

    
    <glyph glyph-name="shijian-" unicode="&#58925;" d="M519.71 334.61c20.06 0 36.33 16.27 36.33 36.33v414.5c0 20.07-16.27 36.33-36.33 36.33-20.07 0-36.33-16.27-36.33-36.33v-414.5c0-20.06 16.27-36.32 36.33-36.33zM858 612.02c-43.41 65.84-104.27 117.72-176 150.02-18.3 8.24-39.81 0.09-48.05-18.21-8.24-18.3-0.09-39.81 18.21-48.05 122.28-55.06 201.29-177.26 201.29-311.32 0-188.16-153.08-341.23-341.23-341.23S170.99 196.31 170.99 384.46c0 132.52 77.74 254.14 198.05 309.84 18.21 8.43 26.14 30.03 17.71 48.23-8.43 18.21-30.02 26.14-48.23 17.71-70.7-32.73-130.6-84.61-173.25-150.02-43.79-67.18-66.94-145.25-66.94-225.76 0-55.86 10.95-110.07 32.54-161.12 20.85-49.29 50.69-93.55 88.69-131.55 38-38 82.26-67.84 131.55-88.69 51.05-21.59 105.26-32.54 161.12-32.54s110.07 10.95 161.12 32.54c49.29 20.85 93.55 50.69 131.55 88.69 38 38 67.84 82.26 88.69 131.55 21.59 51.05 32.54 105.26 32.54 161.12-0.01 81.28-23.56 159.97-68.13 227.56z"  horiz-adv-x="1024" />

    
    <glyph glyph-name="light-open" unicode="&#58928;" d="M512.002 613.116c-73.083 0-138.18-28.559-190.331-78.226-49.489-52.147-78.226-119.908-78.226-190.327 0-46.828 12.949-96.321 36.543-135.516 20.753-36.544 49.486-67.758 86.026-88.694v-130.369c0-33.88 28.56-62.442 62.616-62.442h169.4c33.879 0 62.612 28.563 62.612 62.442v130.37c33.885 23.588 65.1 54.814 86.029 88.694 23.41 41.682 36.537 88.688 36.537 135.516 0 73.08-28.733 140.838-78.22 190.327-54.812 52.15-120.083 78.225-192.986 78.225z m98.977-625.619c0-7.805-7.81-15.785-15.606-15.785H425.972c-7.806 0-15.61 7.98-15.61 15.785v54.637h200.617v-54.637z m91.347 244.961c-18.272-33.878-47.005-59.954-80.885-80.707l-12.942-7.81v-54.803H410.362v54.803l-13.126 7.81c-33.879 18.272-59.954 46.829-80.887 80.707-20.753 33.879-31.218 73.081-31.218 112.105 0 59.954 23.414 114.766 65.276 156.448 41.683 41.863 96.318 65.277 156.272 65.277 60.131 0 114.762-23.414 156.451-65.277 41.859-41.682 65.277-98.978 65.277-156.448 5.139-39.024-5.145-78.226-26.081-112.105zM407.701 696.6610000000001c2.662-13.126 15.61-18.269 26.075-15.61 12.95 2.484 18.269 15.61 15.611 26.075l-23.415 88.514c-2.661 13.126-15.61 18.272-26.075 15.788-13.126-2.661-18.272-15.788-15.61-26.075l23.414-88.692z m-117.424-83.545c10.465 5.323 13.126 20.93 7.98 31.395l-47.005 75.564c-7.807 10.465-20.93 15.61-31.221 7.807-10.465-5.146-13.126-20.756-7.98-31.221l47.005-78.223c7.806-7.806 20.933-10.467 31.221-5.322z m-91.175-119.908l-78.226 47.005c-10.465 5.142-23.414 2.661-31.217-7.804-5.323-10.468-2.661-23.594 7.804-31.398l78.226-46.828c10.465-5.323 23.414-2.662 31.217 7.803 5.145 12.951 2.661 26.076-7.804 31.222z m388.461 187.843c13.127-2.659 23.417 5.145 26.076 15.61l23.41 88.691c2.665 12.949-2.48 23.414-15.607 26.075-12.942 2.484-23.41-5.323-26.068-15.788l-23.418-88.514c-2.664-10.464 5.146-23.59 15.607-26.074z m216.406 46.831c-10.468 5.319-23.411 2.658-31.221-7.807l-47.005-78.223c-5.146-10.468-2.481-23.414 7.803-31.221 10.469-5.32 23.595-2.661 31.399 7.807l46.827 78.223c5.323 10.465 2.666 26.075-7.803 31.221z m130.376-195.473c-5.146 10.465-20.753 12.946-31.221 7.804l-78.226-47.005c-10.461-5.146-13.126-20.756-7.804-31.221 5.14-10.465 20.753-13.126 31.221-7.803l78.22 46.828c10.469 7.803 13.126 20.929 7.81 31.397z"  horiz-adv-x="1024" />

    
    <glyph glyph-name="light-close" unicode="&#58929;" d="M512.002 613.116c-73.083 0-138.18-28.559-190.331-78.226-49.489-52.147-78.226-119.908-78.226-190.327 0-46.828 12.949-96.321 36.543-135.516 20.753-36.544 49.486-67.758 86.026-88.694v-130.369c0-33.88 28.56-62.442 62.616-62.442h169.4c33.879 0 62.612 28.563 62.612 62.442v130.37c33.885 23.588 65.1 54.814 86.029 88.694 23.41 41.682 36.537 88.688 36.537 135.516 0 73.08-28.733 140.838-78.22 190.327-54.812 52.15-120.083 78.225-192.986 78.225z m98.977-625.619c0-7.805-7.81-15.785-15.606-15.785H425.972c-7.806 0-15.61 7.98-15.61 15.785v54.637h200.617z m91.347 244.961c-18.272-33.878-47.005-59.954-80.885-80.707l-12.942-7.81v-54.803H410.362v54.803l-13.126 7.81c-33.879 18.272-59.954 46.829-80.887 80.707-20.753 33.879-31.218 73.081-31.218 112.105 0 59.954 23.414 114.766 65.276 156.448 41.683 41.863 96.318 65.277 156.272 65.277 60.131 0 114.762-23.414 156.451-65.277 41.859-41.682 65.277-98.978 65.277-156.448 5.139-39.024-5.145-78.226-26.081-112.105z"  horiz-adv-x="1024" />

    
    <glyph glyph-name="guanyushua" unicode="&#59004;" d="M836.5568 416.256a235.8272 235.8272 0 0 1-30.4128 20.992l40.96 40.96a459.52 459.52 0 0 1-333.5168 143.36 448.9216 448.9216 0 0 1-111.9744-14.336l-24.3712 46.592c6.2976 1.536 12.4416 3.584 18.7392 5.12 3.9424 0.512 7.7312 2.048 11.6736 2.56 12.9536 3.072 26.2144 4.608 39.5264 6.656a107.776 107.776 0 0 0 12.8 1.536 463.7696 463.7696 0 0 0 53.6064 3.072c17.9712 0 35.84-1.024 53.248-2.56 4.096-0.512 8.0384-1.536 12.1344-2.048 13.3632-1.536 26.7776-3.584 39.7824-6.144l10.6496-3.072c13.4144-3.072 26.7264-6.144 39.68-10.24l7.424-3.072c13.8752-4.608 27.648-9.728 40.96-15.36 1.3824-0.512 2.6624-1.536 4.0448-2.048a433.7664 433.7664 0 0 0 41.984-20.992c0.4608 0 0.8704-0.512 1.3312-0.512a519.936 519.936 0 0 0 118.4768-92.672c8.3968-8.704 16.6912-17.408 24.4224-26.624zM465.2544 266.24L245.8112 683.52l45.312 24.064 194.56-370.688a222.208 222.208 0 0 1-20.4288-70.656zM176.8448 474.624l200.2944-200.192c6.4512 4.096 13.4144 7.168 20.224 10.752l24.0128-45.568a206.9504 206.9504 0 0 1-37.12-23.552l-267.776 267.776c7.6288 9.216 15.872 17.92 24.1664 27.136a538.9824 538.9824 0 0 0 76.8 67.072h0.3584c6.1952 4.608 12.8 8.192 19.2 12.288l23.9104-45.568a457.5744 457.5744 0 0 1-84.0704-70.144z m652.9536-121.344a179.2 179.2 0 1 0-252.5184 21.504 179.7632 179.7632 0 0 0 252.5184-21.504z m-33.8944-28.672a135.2192 135.2192 0 0 1-172.3904 28.672l171.5712-203.776a135.3728 135.3728 0 0 1 0.8192 175.104z m-206.2848-174.08a135.2192 135.2192 0 0 1 172.3904-28.672l-171.5712 203.776a135.3728 135.3728 0 0 1-0.8192-175.104z"  horiz-adv-x="1024" />

    
    <glyph glyph-name="kaiyushua" unicode="&#59009;" d="M639.2832 179.2a211.0976 211.0976 0 0 1-48.0768 27.648l-33.2288 62.976a250.368 250.368 0 0 0 87.7568-33.28l201.4208 201.728a459.52 459.52 0 0 1-333.568 143.36 448.9216 448.9216 0 0 1-111.9744-14.336l-24.3712 46.592c6.2464 1.536 12.4416 3.584 18.7392 4.608a98.2016 98.2016 0 0 0 11.6736 3.072c12.9536 3.072 26.2144 4.608 39.5264 6.656a107.776 107.776 0 0 0 12.8 1.536 463.7696 463.7696 0 0 0 53.6064 3.072c17.9712 0 35.84-1.024 53.248-2.56 4.096-0.512 8.0384-1.536 12.1344-2.048 13.4144-1.536 26.7264-3.584 39.7824-6.144l10.6496-3.072c13.4144-3.072 26.7264-6.144 39.68-10.24l7.424-3.072c13.9264-4.608 27.648-9.728 40.96-15.36 1.3312-0.512 2.6624-1.536 4.0448-2.048a433.7664 433.7664 0 0 0 41.984-20.992c0.4608 0 0.8704-0.512 1.3312-0.512a519.936 519.936 0 0 0 118.4768-92.672c8.3456-8.704 16.6912-17.408 24.4224-26.624z m-107.52-79.36L245.8112 643.584l45.312 24.064 285.9008-544.256zM176.8448 434.688l200.2944-200.192c6.4512 4.096 13.4144 7.168 20.224 10.752l24.0128-45.568a206.9504 206.9504 0 0 1-37.12-23.552l-267.776 267.776c7.6288 9.216 15.872 17.92 24.1664 27.136a538.9824 538.9824 0 0 0 76.8 67.072h0.3584c6.1952 4.608 12.8512 8.192 19.2 12.288l23.9104-45.056a481.7408 481.7408 0 0 1-84.0704-70.656z"  horiz-adv-x="1024" />

    
    <glyph glyph-name="daoru" unicode="&#58995;" d="M978.495504 729.659464A141.240558 141.240558 0 0 0 1021.037841 640.74598v-638.13505a127.62701 127.62701 0 0 0-39.564374-93.593141 131.881244 131.881244 0 0 0-91.0406-37.011833H130.626734a127.62701 127.62701 0 0 0-93.593141 39.564373A131.881244 131.881244 0 0 0 0.02176 5.588893V765.395026A127.62701 127.62701 0 0 0 39.586133 858.988167 131.881244 131.881244 0 0 0 130.626734 896H382.90279a131.030397 131.030397 0 0 0 53.177921-14.464394 127.62701 127.62701 0 0 0 42.542337-33.608446l42.542336-48.498264a85.084673 85.084673 0 0 1 22.122016-25.099979 53.177921 53.177921 0 0 1 32.332175-8.933891h308.431941a135.284631 135.284631 0 0 0 94.443988-35.735562z m-265.889604-375.22341a33.608446 33.608446 0 0 1-39.989797 20.420322h-82.957557V497.803729a37.011833 37.011833 0 0 1-42.542336 42.542336H467.987464a42.542337 42.542337 0 0 1-28.503366-13.188124 42.542337 42.542337 0 0 1-13.188124-28.503366v-122.947353H336.10622a39.989796 39.989796 0 0 1-19.994898-5.10508 34.033869 34.033869 0 0 1-14.464395-15.315241 42.542337 42.542337 0 0 1-4.254234-20.845745 34.459293 34.459293 0 0 1 10.635585-19.994899l170.169346-178.677814a62.111812 62.111812 0 0 1 11.911855-8.93389 34.459293 34.459293 0 0 1 15.740664-4.679657 18.718628 18.718628 0 0 1 16.166088 0 55.730461 55.730461 0 0 1 11.911854 8.508467l170.169347 185.059165a37.437256 37.437256 0 0 1 8.083044 38.713526z"  horiz-adv-x="1024" />

    
    <glyph glyph-name="daochu" unicode="&#59096;" d="M301.544804 302.086301c6.143527-15.752634 19.454503-22.526267 40.287363-20.399662h82.583186v-123.382509c0-27.882163 13.980463-41.862626 41.823244-41.862626h81.638028c10.751173 0.669487 20.242135 5.198369 28.433505 13.38974 8.19137 8.270133 12.680871 17.761095 13.389739 28.472886V281.647258h89.081148c7.167449 0 13.822937 1.575263 19.887701 4.804553a34.222598 34.222598 0 0 1 14.492423 15.595108 36.861165 36.861165 0 0 1 4.331975 20.990386c-0.669487 6.813014-4.331974 13.389739-10.751173 19.808938l-171.743097 179.186216a56.039997 56.039997 0 0 1-11.775094 9.17591 40.090455 40.090455 0 0 1-16.107069 4.804553c-6.419199 2.953619-11.775094 3.22929-16.067687 1.181448a44.501192 44.501192 0 0 1-11.814476-8.545805l-171.703715-185.723559c-10.081686-11.538805-12.050765-25.164833-5.986001-40.878087M980.995308 729.100838c24.33782-23.235136 38.593954-52.456273 42.925929-87.427121v-638.65118c-1.378356-38.633336-14.689332-69.941697-39.696639-93.84632-25.046689-24.022767-55.449273-36.309822-91.207753-37.097454H130.904392c-38.593954 1.378356-69.902315 14.689332-93.806938 39.73602-24.022767 25.08607-36.349204 55.409892-37.097454 91.207754V765.056226C1.378356 803.689562 14.689332 834.997923 39.696639 858.902546 64.782709 882.925313 95.145912 895.212368 130.904392 896h254.405046c17.87924-0.74825 35.522191-5.552804 53.086378-14.571187 17.524806-8.900238 31.662795-20.242135 42.413968-33.789401l41.823244-48.242443c6.45858-10.751173 13.783555-19.178832 22.053688-25.243596 8.151988-6.143527 19.139451-9.057765 32.686717-9.057765h309.14545c38.672717-0.787632 70.099223-12.759634 94.476425-35.99477"  horiz-adv-x="1024" />

    
    <glyph glyph-name="tubiao_huaban1fuben81" unicode="&#58926;" d="M0 896h187.733333v-187.733333H0zM208.213333 896h187.733334v-187.733333H208.213333zM416.426667 896h187.733333v-187.733333h-187.733333zM628.053333 896h187.733334v-187.733333h-187.733334zM836.266667 896H1024v-187.733333h-187.733333zM0 687.786667h187.733333v-187.733334H0zM208.213333 687.786667h187.733334v-187.733334H208.213333zM416.426667 687.786667h187.733333v-187.733334h-187.733333zM628.053333 687.786667h187.733334v-187.733334h-187.733334zM836.266667 687.786667H1024v-187.733334h-187.733333zM0 479.573333h187.733333v-187.733333H0zM208.213333 479.573333h187.733334v-187.733333H208.213333zM416.426667 479.573333h187.733333v-187.733333h-187.733333zM628.053333 479.573333h187.733334v-187.733333h-187.733334zM836.266667 479.573333H1024v-187.733333h-187.733333zM0 267.946667h187.733333v-187.733334H0zM208.213333 267.946667h187.733334v-187.733334H208.213333zM416.426667 267.946667h187.733333v-187.733334h-187.733333zM628.053333 267.946667h187.733334v-187.733334h-187.733334zM836.266667 267.946667H1024v-187.733334h-187.733333zM0 59.733333h187.733333V-128H0zM208.213333 59.733333h187.733334V-128H208.213333zM416.426667 59.733333h187.733333V-128h-187.733333zM628.053333 59.733333h187.733334V-128h-187.733334zM836.266667 59.733333H1024V-128h-187.733333z"  horiz-adv-x="1024" />

    
    <glyph glyph-name="fuzhi" unicode="&#59113;" d="M720 704H176a80.096 80.096 0 0 1-80-80v-608c0-44.128 35.904-80 80-80h544c44.128 0 80 35.872 80 80V624c0 44.096-35.872 80-80 80z m16-688c0-8.8-7.2-16-16-16H176a16 16 0 0 0-16 16V624a16 16 0 0 0 16 16h544a16 16 0 0 0 16-16v-608zM848 832H304a32 32 0 0 1 0-64h544a16 16 0 0 0 16-16v-608a32 32 0 1 1 64 0V752c0 44.096-35.872 80-80 80zM608 536H288a32 32 0 0 1 0-64h320a32 32 0 1 1 0 64z m0-160H288a32 32 0 1 1 0-64h320a32 32 0 1 1 0 64zM480 217.344H288a32 32 0 1 1 0-64h192a32 32 0 1 1 0 64z"  horiz-adv-x="1024" />

    
    <glyph glyph-name="tubiao_huaban1fuben9" unicode="&#58905;" d="M136.533333 759.466667h750.933334v-750.933334H136.533333zM273.066667 896v-68.266667H68.266667v-204.8H0V896zM750.933333-128v68.266667h204.8v204.8h68.266667v-273.066667zM273.066667-128v68.266667H68.266667v204.8H0v-273.066667zM750.933333 896v-68.266667h204.8v-204.8h68.266667V896z"  horiz-adv-x="1024" />

    
    <glyph glyph-name="tubiao_huaban1fuben7" unicode="&#58906;" d="M0 896h232.106667v-232.106667H0zM262.826667 896h232.106666v-232.106667H262.826667zM529.066667 896h232.106666v-232.106667h-232.106666zM791.893333 896H1024v-232.106667h-232.106667zM0 633.173333h232.106667v-232.106666H0zM262.826667 633.173333h232.106666v-232.106666H262.826667zM529.066667 633.173333h232.106666v-232.106666h-232.106666zM791.893333 633.173333H1024v-232.106666h-232.106667zM0 366.933333h232.106667v-232.106666H0zM262.826667 366.933333h232.106666v-232.106666H262.826667zM529.066667 366.933333h232.106666v-232.106666h-232.106666zM791.893333 366.933333H1024v-232.106666h-232.106667zM0 104.106667h232.106667V-128H0zM262.826667 104.106667h232.106666V-128H262.826667zM529.066667 104.106667h232.106666V-128h-232.106666zM791.893333 104.106667H1024V-128h-232.106667z"  horiz-adv-x="1024" />

    
    <glyph glyph-name="tubiao_huaban1fuben6" unicode="&#58908;" d="M0 896h228.693333v-228.693333H0zM0 629.76h228.693333v-228.693333H0zM0 363.52h228.693333v-228.693333H0zM795.306667 896H1024v-228.693333h-228.693333zM795.306667 629.76H1024v-228.693333h-228.693333zM795.306667 363.52H1024v-228.693333h-228.693333zM0 100.693333h228.693333V-128H0zM266.24 100.693333h228.693333V-128H266.24zM532.48 100.693333h228.693333V-128h-228.693333zM266.24 896h228.693333v-228.693333H266.24zM266.24 629.76h491.52v-491.52H266.24zM532.48 896h228.693333v-228.693333h-228.693333zM795.306667 100.693333H1024V-128h-228.693333z"  horiz-adv-x="1024" />

    
    <glyph glyph-name="tubiao_huaban1fuben5" unicode="&#58910;" d="M0 896h317.44v-317.44H0zM351.573333 896h317.44v-317.44h-317.44zM706.56 896H1024v-317.44h-317.44zM0 544.426667h317.44v-317.44H0zM351.573333 544.426667h317.44v-317.44h-317.44zM706.56 544.426667H1024v-317.44h-317.44zM0 189.44h317.44V-128H0zM351.573333 189.44h317.44V-128h-317.44zM706.56 189.44H1024V-128h-317.44z"  horiz-adv-x="1024" />

    
    <glyph glyph-name="tubiao_huaban1fuben4" unicode="&#58914;" d="M0 896h317.44v-1024H0zM351.573333 896h317.44v-317.44h-317.44zM706.56 896H1024v-317.44h-317.44zM351.573333 544.426667h317.44v-317.44h-317.44zM706.56 544.426667H1024v-317.44h-317.44zM351.573333 189.44h317.44V-128h-317.44zM706.56 189.44H1024V-128h-317.44z"  horiz-adv-x="1024" />

    
    <glyph glyph-name="tubiao_huaban1fuben3" unicode="&#58917;" d="M703.146667 896H1024v-320.853333h-320.853333zM703.146667 544.426667H1024v-320.853334h-320.853333zM703.146667 192.853333H1024V-128h-320.853333zM351.573333 192.853333h320.853334V-128h-320.853334zM0 192.853333h320.853333V-128H0zM0 896h675.84v-675.84H0z"  horiz-adv-x="1024" />

    
    <glyph glyph-name="tubiao_huaban1fuben2" unicode="&#58919;" d="M0 896h494.933333v-494.933333H0zM0 366.933333h494.933333V-128H0zM529.066667 896H1024v-494.933333H529.066667zM529.066667 366.933333H1024V-128H529.066667z"  horiz-adv-x="1024" />

    
    <glyph glyph-name="tubiao_huaban1fuben" unicode="&#58920;" d="M0 896h317.44v-1024H0zM351.573333 896h317.44v-1024h-317.44zM706.56 896H1024v-1024h-317.44z"  horiz-adv-x="1024" />

    
    <glyph glyph-name="tubiao_huaban1" unicode="&#58924;" d="M0 896h1024v-1024H0z"  horiz-adv-x="1024" />

    
    <glyph glyph-name="jiang-right" unicode="&#58889;" d="M3.190031 434.0436136l861.30841101 1e-8L864.49844201 354.29283461 3.190031 354.29283461l0 79.75077899zM823.02803698 513.79439262L1023.99999999 395.76323961l-200.97196301-121.22118402 0 239.25233703z"  horiz-adv-x="1024" />

    
    <glyph glyph-name="ashbin" unicode="&#59204;" d="M341.013333 501.333333l27.754667-393.450666h271.829333l27.733334 393.450666h64.106666L704.426667 103.381333a64 64 0 0 0-63.829334-59.498666H368.768a64 64 0 0 0-63.829333 59.52L276.885333 501.333333h64.128z m139.306667-19.818666v-298.666667h-64v298.666667h64z m117.013333 0v-298.666667h-64v298.666667h64zM181.333333 608h640v-64h-640v64z m453.482667 106.666667v-64h-256v64h256z"  horiz-adv-x="1024" />

    
    <glyph glyph-name="add" unicode="&#59202;" d="M512 746.666667c200.298667 0 362.666667-162.368 362.666667-362.666667s-162.368-362.666667-362.666667-362.666667S149.333333 183.701333 149.333333 384 311.701333 746.666667 512 746.666667z m0-64c-164.949333 0-298.666667-133.717333-298.666667-298.666667s133.717333-298.666667 298.666667-298.666667 298.666667 133.717333 298.666667 298.666667-133.717333 298.666667-298.666667 298.666667z m32-106.666667v-160H704v-64h-160V192h-64v160.021333L320 352v64l160 0.021333V576h64z"  horiz-adv-x="1024" />

    
    <glyph glyph-name="liuliang" unicode="&#58963;" d="M230.4 481.28h80.213333a40.96 40.96 0 0 0 40.391111-40.391111v-240.64a39.822222 39.822222 0 0 0-40.391111-39.822222H230.4a39.822222 39.822222 0 0 0-40.391111 39.822222V440.888889a40.96 40.96 0 0 0 40.391111 40.391111z m240.071111 320.284444h80.782222a39.822222 39.822222 0 0 0 39.822223-39.822222v-560.924444a39.822222 39.822222 0 0 0-39.822223-40.391111H470.471111a39.822222 39.822222 0 0 0-39.822222 40.391111V761.742222a39.822222 39.822222 0 0 0 39.822222 39.822222z m240.64-113.777777h80.213333a40.391111 40.391111 0 0 0 40.391112-40.391111v-447.715556a39.822222 39.822222 0 0 0-40.391112-39.822222H711.111111a39.822222 39.822222 0 0 0-40.391111 39.822222V647.964444a40.391111 40.391111 0 0 0 40.391111 40.391112zM191.146667 46.648889h-40.391111a39.822222 39.822222 0 0 1-39.822223-40.391111H113.777778a39.822222 39.822222 0 0 1 39.822222-39.822222h722.488889a39.822222 39.822222 0 0 1 39.822222 39.822222 39.822222 39.822222 0 0 1-39.822222 40.391111z"  horiz-adv-x="1024" />

    
    <glyph glyph-name="wenjianjia" unicode="&#58982;" d="M837.253 58.747c0-29.127-24.273-53.4-53.4-53.4H113.929l94.664 441.762c0 29.127 24.272 53.4 53.4 53.4h614.096c29.127 0 53.4-24.273 53.4-53.4l-92.236-388.362zM220.729 539.345h601.96v53.4c0 29.126-24.272 53.399-53.4 53.399H448.891v48.545c0 29.127-24.272 53.4-53.4 53.4H128.494c-29.127 0-53.4-24.273-53.4-53.4v-635.942l94.663 427.198c-2.427 31.554 21.846 53.4 50.973 53.4z m0 0"  horiz-adv-x="1024" />

    
    <glyph glyph-name="huanfu" unicode="&#59028;" d="M722.61 630.49l123.46-123.46-62.76-62.76-2.39 2.39a51.987 51.987 0 0 1-56.67 11.27c-19.43-8.05-32.1-27.01-32.1-48.04v-272.38H331.42V409.46c0 21.03-12.67 39.99-32.1 48.04a51.818 51.818 0 0 1-19.89 3.96c-13.53 0-26.83-5.28-36.78-15.23l-1.96-1.96-62.76 62.76 123.46 123.46h86.06c29.45-37.82 75.3-60.94 124.33-60.94s94.88 23.12 124.33 60.94h86.5m21.54 52h-136.8c-16.76-35.99-53.25-60.94-95.57-60.94s-78.81 24.95-95.57 60.94h-136.8v-0.44L104.39 507.02l136.29-136.3 38.73 38.73V85.5h464.73V409.89l39.16-39.16 136.29 136.3-175.44 175.46z"  horiz-adv-x="1024" />

    
    <glyph glyph-name="Daytimemode-fill" unicode="&#59260;" d="M478.634667 84.650667a304.490667 304.490667 0 0 1 64.021333-0.277334v-124.330666h-64v124.608z m267.776 110.229333l87.594666-87.637333-45.226666-45.248-87.658667 87.594666c16.64 13.44 31.829333 28.629333 45.290667 45.290667z m-469.994667 1.493333c13.333333-16.746667 28.416-32 44.970667-45.568L232.533333 61.994667l-45.248 45.226666 89.130667 89.130667zM512 634.965333c138.602667 0 250.986667-112.384 250.986667-250.986666 0-138.602667-112.384-250.986667-250.986667-250.986667-138.602667 0-250.986667 112.384-250.986667 250.986667 0 138.602667 112.384 250.986667 250.986667 250.986666z m423.957333-217.642666v-64h-124.330666a304.725333 304.725333 0 0 1-0.277334 64h124.608z m-723.306666 0a304.490667 304.490667 0 0 1-0.277334-64H85.333333v64h127.317334zM232.533333 708.736l90.346667-90.304c-16.64-13.44-31.829333-28.629333-45.290667-45.290667L187.306667 663.466667l45.226666 45.248z m556.224 0l45.248-45.226667-88.810666-88.874666a302.997333 302.997333 0 0 1-45.546667 44.970666l89.109333 89.130667zM542.656 810.666667v-127.04a304.725333 304.725333 0 0 1-64-0.277334V810.666667h64z"  horiz-adv-x="1024" />

    
    <glyph glyph-name="nightmode-fill" unicode="&#59268;" d="M490.666667 725.333333c14.549333 0 28.885333-0.981333 42.922666-2.858666a194.282667 194.282667 0 1 1 274.218667-274.24c1.877333-14.016 2.858667-28.352 2.858667-42.901334 0-176.725333-143.274667-320-320-320-176.725333 0-320 143.274667-320 320 0 176.725333 143.274667 320 320 320z m224.277333 0v-72.853333h72.874667v-60.010667l-72.874667 0.021334v-72.874667h-59.989333l-0.021334 72.874667h-72.832v59.989333H654.933333V725.333333h60.010667z"  horiz-adv-x="1024" />

    
    <glyph glyph-name="prompt" unicode="&#59230;" d="M512 746.666667c200.298667 0 362.666667-162.368 362.666667-362.666667s-162.368-362.666667-362.666667-362.666667S149.333333 183.701333 149.333333 384 311.701333 746.666667 512 746.666667z m0-64c-164.949333 0-298.666667-133.717333-298.666667-298.666667s133.717333-298.666667 298.666667-298.666667 298.666667 133.717333 298.666667 298.666667-133.717333 298.666667-298.666667 298.666667z m32-234.666667v-256h-64V448h64z m0 106.666667v-64h-64v64h64z"  horiz-adv-x="1024" />

    
    <glyph glyph-name="zhongqi" unicode="&#58909;" d="M791.38816 68.82304a391.62368 391.62368 0 1 0-276.6848 668.672v-89.728a301.74208 301.74208 0 1 1 263.38816-154.23488l78.21824 43.9808a391.74656 391.74656 0 0 0-64.90624-468.66944zM514.71872 824.35072l-0.05632-275.93216 183.87456 138.00448z m0 0"  horiz-adv-x="1024" />

    
    <glyph glyph-name="category" unicode="&#59207;" d="M256 161.898667v-64H170.666667v64h85.333333z m597.333333 0v-64H298.666667v64h554.666666zM256 402.816v-64H170.666667v64h85.333333z m597.333333 0v-64H298.666667v64h554.666666zM256 643.754667v-64H170.666667v64h85.333333z m597.333333 0v-64H298.666667v64h554.666666z"  horiz-adv-x="1024" />

    
    <glyph glyph-name="hanbaobao" unicode="&#58986;" d="M223.9 649h576.2c20.9 0 37.8-16.9 37.8-37.8s-16.9-37.8-37.8-37.8H223.9c-20.9 0-37.8 16.9-37.8 37.8 0 20.8 16.9 37.8 37.8 37.8zM800.1 572.3H223.9c-21.4 0-38.8 17.4-38.8 38.8s17.4 38.8 38.8 38.8h576.2c21.4 0 38.8-17.4 38.8-38.8s-17.4-38.8-38.8-38.8zM223.9 648c-20.3 0-36.8-16.5-36.8-36.8 0-20.3 16.5-36.8 36.8-36.8h576.2c20.3 0 36.8 16.5 36.8 36.8 0 20.3-16.5 36.8-36.8 36.8H223.9zM223.9 422h576.2c20.9 0 37.8-16.9 37.8-37.8s-16.9-37.8-37.8-37.8H223.9c-20.9 0-37.8 16.9-37.8 37.8 0 20.8 16.9 37.8 37.8 37.8zM800.1 345.3H223.9c-21.4 0-38.8 17.4-38.8 38.8s17.4 38.8 38.8 38.8h576.2c21.4 0 38.8-17.4 38.8-38.8s-17.4-38.8-38.8-38.8zM223.9 421c-20.3 0-36.8-16.5-36.8-36.8s16.5-36.8 36.8-36.8h576.2c20.3 0 36.8 16.5 36.8 36.8S820.4 421 800.1 421H223.9zM223.9 195h576.2c20.9 0 37.8-16.9 37.8-37.8s-16.9-37.8-37.8-37.8H223.9c-20.9 0-37.8 16.9-37.8 37.8 0 20.8 16.9 37.8 37.8 37.8zM800.1 118.3H223.9c-21.4 0-38.8 17.4-38.8 38.8s17.4 38.8 38.8 38.8h576.2c21.4 0 38.8-17.4 38.8-38.8s-17.4-38.8-38.8-38.8zM223.9 194c-20.3 0-36.8-16.5-36.8-36.8s16.5-36.8 36.8-36.8h576.2c20.3 0 36.8 16.5 36.8 36.8S820.4 194 800.1 194H223.9z"  horiz-adv-x="1024" />

    
    <glyph glyph-name="zantingtingzhi" unicode="&#58997;" d="M735.9 831.1c-51.2 0-96-44.7-96-95.8v-702.6c0-51.1 44.8-95.8 96-95.8s96 44.7 96 95.8V735.3c0 51.1-44.8 95.8-96 95.8z m-447.8 0c-51.2 0-96-44.7-96-95.8v-702.6c0-51.1 44.8-95.8 96-95.8s96 44.7 96 95.8V735.3c-0.1 51.1-44.9 95.8-96 95.8z"  horiz-adv-x="1024" />

    
    <glyph glyph-name="history" unicode="&#59128;" d="M512 736c194.410667 0 352-157.589333 352-352S706.410667 32 512 32l-2.538667 0.106667c-91.477333 7.274667-165.738667 38.08-221.44 91.989333L288 53.333333h-64V256H405.333333v-64h-92.842666c46.250667-56.917333 112.490667-88.725333 200.768-96l6.677333 0.106667C675.328 100.309333 800 227.605333 800 384c0 159.061333-128.938667 288-288 288S224 543.061333 224 384h-64c0 194.410667 157.589333 352 352 352zM469.333333 576h64v-160h160v-64H469.333333V576z"  horiz-adv-x="1024" />

    
    <glyph glyph-name="guiding" unicode="&#59242;" d="M746.666667 746.666667a64 64 0 0 0 64-64v-181.333334a64 64 0 0 0 64-64v-49.664l-64-58.496v87.573334l-239.104-197.376a95.978667 95.978667 0 0 0-117.632-3.050667l-3.84 2.986667-236.757334 192V96h372.330667l62.805333-64H213.333333a64 64 0 0 0-64 64v341.333333a64 64 0 0 0 64 64V682.666667a64 64 0 0 0 64 64h469.333334z m126.869333-467.861334l44.928-45.610666-174.08-171.456-105.536 104.106666 44.970667 45.568 60.586666-59.818666 129.130667 127.210666zM746.666667 682.666667H277.333333v-240.853334l213.184-172.906666a32 32 0 0 1 37.845334-1.984l2.56 1.92L746.666667 446.890667V682.666667z m-149.333334-192v-64H362.666667v64h234.666666z m64 128v-64H362.666667v64h298.666666z"  horiz-adv-x="1024" />

    
    <glyph glyph-name="play" unicode="&#59137;" d="M512 746.666667c200.298667 0 362.666667-162.368 362.666667-362.666667s-162.368-362.666667-362.666667-362.666667S149.333333 183.701333 149.333333 384 311.701333 746.666667 512 746.666667z m0-64c-164.949333 0-298.666667-133.717333-298.666667-298.666667s133.717333-298.666667 298.666667-298.666667 298.666667 133.717333 298.666667 298.666667-133.717333 298.666667-298.666667 298.666667z m-64-141.312a42.666667 42.666667 0 0 0 22.741333-6.570667l176.533334-111.232a42.666667 42.666667 0 0 0 0.32-71.978667l-176.533334-113.429333A42.666667 42.666667 0 0 0 405.333333 274.026667v224.64a42.666667 42.666667 0 0 0 42.666667 42.666666z m21.333333-81.322667v-146.922667l115.456 74.176L469.333333 460.032z"  horiz-adv-x="1024" />

    
    <glyph glyph-name="download" unicode="&#59213;" d="M704 554.666667h64a64 64 0 0 0 64-64v-362.666667a64 64 0 0 0-64-64H256a64 64 0 0 0-64 64V490.666667a64 64 0 0 0 64 64h64v-64h-64v-362.666667h512V490.666667h-64v64z m-154.794667 212.266666l0.042667-347.456 74.005333 74.026667 45.226667-45.248-150.826667-150.848-150.848 150.826667 45.248 45.269333 73.173334-73.173333V766.933333h64z"  horiz-adv-x="1024" />

    
    <glyph glyph-name="rizhi" unicode="&#58931;" d="M92.330667 747.52a46.08 46.08 0 0 1-46.08-46.08v-714.24c0-40.106667 23.210667-69.12 46.08-69.12h822.613333c22.954667 0 46.08 29.013333 46.08 69.12v691.2c0 40.106667-23.125333 69.12-46.08 69.12h-822.613333z m0 46.08h822.613333c50.944 0 92.16-51.541333 92.16-115.2v-691.2c0-63.658667-41.216-115.2-92.16-115.2h-822.613333c-50.858667 0-92.16 51.541333-92.16 115.2V701.44c0 50.858667 41.301333 92.16 92.16 92.16zM207.530667 517.12a23.04 23.04 0 1 0 0-46.08 23.04 23.04 0 0 0 0 46.08z m142.933333 0h443.306667c15.36 0 27.733333-10.24 27.733333-23.04 0-12.8-12.458667-23.04-27.733333-23.04H350.464a29.098667 29.098667 0 0 0-23.978667 11.52 19.712 19.712 0 0 0 0 23.04 29.098667 29.098667 0 0 0 23.978667 11.52zM207.530667 332.8a23.04 23.04 0 1 0 0-46.08 23.04 23.04 0 0 0 0 46.08z m142.933333 0h443.306667c15.36 0 27.733333-10.24 27.733333-23.04 0-12.8-12.458667-23.04-27.733333-23.04H350.464c-15.36 0-27.733333 10.24-27.733333 23.04 0 12.8 12.458667 23.04 27.733333 23.04zM207.530667 148.48a23.04 23.04 0 1 0 0-46.08 23.04 23.04 0 0 0 0 46.08z m142.933333 0h443.306667c15.36 0 27.733333-10.24 27.733333-23.04 0-12.8-12.458667-23.04-27.733333-23.04H350.464c-15.36 0-27.733333 10.24-27.733333 23.04 0 12.8 12.458667 23.04 27.733333 23.04zM281.770667 896c17.066667 0 25.6-8.533333 25.6-25.6v-204.8c0-17.066667-8.533333-25.6-25.6-25.6-17.066667 0-25.6 8.533333-25.6 25.6V870.4c0 17.066667 8.533333 25.6 25.6 25.6zM725.504 896c17.066667 0 25.6-8.533333 25.6-25.6v-204.8c0-17.066667-8.533333-25.6-25.6-25.6-17.066667 0-25.6 8.533333-25.6 25.6V870.4c0 17.066667 8.533333 25.6 25.6 25.6z"  horiz-adv-x="1024" />

    
    <glyph glyph-name="xitongweihu" unicode="&#59201;" d="M463.366104 76.774301a127.983938 127.983938 0 0 0 250.848518 0H972.742177v-51.193575h-258.527555a127.983938 127.983938 0 0 0-250.848518 0H51.257823v51.193575h412.108281z m46.074217 358.355026H972.742177v-51.193575H509.440321a127.983938 127.983938 0 1 0 0 51.193575z m5.119358 358.355027a127.983938 127.983938 0 0 0 250.848518 0H972.742177v-51.193575h-207.33398a127.983938 127.983938 0 0 0-250.848518 0H51.257823V793.484354h463.301856zM51.257823 435.129327h204.774301v-51.193575H51.257823V435.129327z m588.726115 255.967876a76.790363 76.790363 0 1 1 0 153.580726 76.790363 76.790363 0 0 1 0-153.580726z m-255.967876-358.355026a76.790363 76.790363 0 1 1 0 153.580725 76.790363 76.790363 0 0 1 0-153.580725z m204.774301-358.355027a76.790363 76.790363 0 1 1 0 153.580726 76.790363 76.790363 0 0 1 0-153.580726z"  horiz-adv-x="1024" />

    
    <glyph glyph-name="suozi" unicode="&#58941;" d="M834.016 466.656h-71.072V637.12C762.944 779.904 650.432 896 512 896 373.6 896 260.992 779.904 260.992 637.12v-170.464H189.984C155.744 466.656 128 438.08 128 402.72V-64c0-35.392 27.744-64 61.984-64h644.096c34.24 0 61.92 28.608 61.92 64V402.72c0 35.328-27.744 63.936-61.984 63.936z m-287.168-309.44v-101.92a8.32 8.32 0 0 0-8.16-8.384H485.44a8.32 8.32 0 0 0-8.192 8.384v101.92a79.616 79.616 0 0 0-42.368 70.72c0 43.872 34.56 79.584 77.12 79.584 42.624 0 77.184-35.712 77.184-79.616 0.064-31.04-17.28-57.504-42.304-70.72z m119.808 309.44H357.408V632.96c0 87.936 69.44 159.52 154.688 159.52 85.248 0 154.56-71.584 154.56-159.52v-166.272z"  horiz-adv-x="1024" />

    
    <glyph glyph-name="RectangleCopy1" unicode="&#59049;" d="M762.651364 174.374887l-244.51961 75.945717 334.929146 381.136569-90.452202-457.082286zM902.041621 721.013387a21.333067 21.333067 0 0 1-22.485052 2.005309L155.981614 357.967259a21.333067 21.333067 0 1 1 2.986629-39.338175L387.488053 244.048683a21.333067 21.333067 0 1 1 13.226502 40.532826L221.388796 343.204777l577.699446 291.40969-334.715816-380.79524 0.426661-0.426661a20.906405 20.906405 0 0 1-5.759928-13.653163l-0.085332-176.339129a21.333067 21.333067 0 0 1 42.666133 0l0.085332 147.368825 270.929947-84.180281a21.418399 21.418399 0 0 1 27.263659 16.21313L910.148187 699.850985a21.546397 21.546397 0 0 1-8.106566 21.162402z"  horiz-adv-x="1040" />

    
    <glyph glyph-name="icon-test1" unicode="&#58943;" d="M512 256c-70.592 0-128 57.408-128 128s57.408 128 128 128 128-57.408 128-128-57.408-128-128-128m0 320a192 192 0 0 1 0-384 192 192 0 0 1 0 384M693.216 160.448a291.744 291.744 0 0 0-40.512-27.52c-1.216-0.64-2.368-1.472-3.616-2.144a286.08 286.08 0 0 0-34.048-15.392l-19.552-72.992-9.28-34.592c-0.576-0.128-1.152-0.32-1.76-0.384l-8.736-1.632c-3.52-0.64-7.104-1.088-10.656-1.6a357.152 357.152 0 0 0-53.056-3.744c-5.216 0-10.464 0.128-15.68 0.32l-8.64 0.48a355.936 355.936 0 0 0-28.736 2.944c-3.52 0.512-7.072 0.96-10.624 1.6a418.496 418.496 0 0 0-8.736 1.6l-1.76 0.416-9.28 34.56-19.584 73.024a286.784 286.784 0 0 0-47.84 23.776 287.488 287.488 0 0 0-30.304 21.28l-72.96-19.552-34.56-9.28-1.184 1.376a237.504 237.504 0 0 0-5.792 6.72c-2.304 2.784-4.512 5.664-6.752 8.512a315.84 315.84 0 0 0-16.928 23.424c-1.6 2.336-3.104 4.768-4.64 7.168a337.92 337.92 0 0 0-15.68 27.168 435.84 435.84 0 0 0-3.936 7.68c-1.536 3.104-3.072 6.208-4.512 9.344a362.912 362.912 0 0 0-7.296 17.024c-1.344 3.328-2.688 6.656-3.968 9.984l-2.976 8.448-0.512 1.696 25.184 25.184 53.568 53.632a292.8 292.8 0 0 0-3.68 41.28c0 1.28-0.192 2.496-0.192 3.744 0 1.28 0.192 2.464 0.192 3.744a292.8 292.8 0 0 0 3.68 41.28l-53.568 53.632-25.184 25.184a438.656 438.656 0 0 0 3.488 10.144c1.28 3.36 2.624 6.688 3.968 10.048a375.68 375.68 0 0 0 52.992 91.776c2.24 2.848 4.448 5.696 6.72 8.48 1.92 2.24 3.84 4.48 5.824 6.72l1.184 1.376 34.56-9.28 72.96-19.52c9.568 7.776 19.744 14.72 30.304 21.28l4.064 2.464a283.68 283.68 0 0 0 43.776 21.28l19.584 73.024 9.28 34.56 1.76 0.416c2.88 0.544 5.76 1.12 8.704 1.6 3.52 0.608 7.168 1.12 10.752 1.6 6.08 0.864 12.16 1.6 18.336 2.208a362.752 362.752 0 0 0 19.008 1.184c5.184 0.224 10.4 0.384 15.616 0.384 5.216 0 10.464-0.16 15.648-0.384a362.752 362.752 0 0 0 19.008-1.184c6.08-0.576 12.224-1.344 18.304-2.24 3.616-0.448 7.2-0.96 10.784-1.536l8.704-1.632 1.76-0.384 9.28-34.592 19.52-72.992c11.712-4.512 23.168-9.472 34.08-15.392 1.248-0.672 2.4-1.504 3.616-2.176 14.304-8.064 27.84-17.216 40.512-27.52l72.96 19.584 34.528 9.248 1.216-1.344c1.92-2.24 3.904-4.48 5.76-6.752 2.304-2.752 4.48-5.632 6.72-8.448 3.84-4.864 7.552-9.792 11.136-14.848 1.984-2.816 3.904-5.696 5.824-8.544l4.672-7.232a357.472 357.472 0 0 0 19.616-34.88 397.184 397.184 0 0 0 11.776-26.336c1.344-3.328 2.72-6.656 4-10.048 1.024-2.784 1.984-5.568 2.944-8.384 0.192-0.576 0.32-1.152 0.544-1.728l-25.184-25.184-53.6-53.6c1.92-12.064 3.104-24.352 3.488-36.896 0.064-2.72 0.384-5.44 0.384-8.16 0-2.752-0.32-5.44-0.384-8.16a291.136 291.136 0 0 0-3.52-36.864l53.632-53.632 25.184-25.184-0.544-1.696c-0.96-2.816-1.92-5.6-2.944-8.384-1.28-3.392-2.624-6.72-4-10.08a376.32 376.32 0 0 0-11.776-26.336 435.84 435.84 0 0 0-11.456-21.44c-2.624-4.544-5.376-8.992-8.16-13.44-1.536-2.368-3.072-4.8-4.64-7.136a315.84 315.84 0 0 0-16.96-23.456c-2.24-2.88-4.48-5.696-6.72-8.448-1.92-2.304-3.84-4.512-5.792-6.752-0.384-0.48-0.8-0.896-1.216-1.344l-34.56 9.248-72.96 19.52z m-305.12-139.328c-2.624 0.896-5.28 1.728-7.872 2.688l-3.328 1.216-3.328 1.28c4.896-1.92 9.856-3.584 14.816-5.248l-0.32 0.064z m-119.424 66.368l-2.656 2.24c-2.144 1.824-4.224 3.712-6.336 5.568l-0.224 0.192c3.968-3.52 7.936-6.976 12.064-10.272l-2.88 2.24z m623.776 245.664l-0.192 0.16-0.096 0.128h-0.032l-29.184 29.216c0.416 7.104 1.056 14.144 1.056 21.344 0 7.232-0.64 14.272-1.056 21.376l29.184 29.184 0.128 0.128 0.192 0.192 54.72 54.72a444.032 444.032 0 0 1-18.4 57.376 449.664 449.664 0 0 1-28.8 61.024c-11.424 19.84-24.576 38.08-38.432 55.456a449.024 449.024 0 0 1-40.48 44.64l-74.752-20.032-0.064-0.032-0.224-0.064-0.16-0.032h-0.032l-39.424-10.56a348.448 348.448 0 0 1-37.472 21.376l-10.624 39.68-0.032 0.064-0.032 0.16-0.064 0.224v0.064l-20.032 74.752a447.68 447.68 0 0 1-58.88 12.736A448.128 448.128 0 0 1 512 832c-22.912 0-45.248-2.24-67.232-5.568-20.096-3.04-39.776-7.136-58.88-12.736l-20.032-74.752-0.032-0.064-0.064-0.224-0.032-0.16v-0.064l-10.656-39.68c-12.928-6.464-25.504-13.472-37.472-21.44l-39.392 10.56-0.064 0.064h-0.16l-0.224 0.096h-0.064l-74.72 20.064c-14.432-13.76-27.84-28.8-40.48-44.64A446.816 446.816 0 0 1 124.032 608c-11.456-19.84-20.672-40.32-28.8-61.024A450.496 450.496 0 0 1 76.8 489.6l54.72-54.72v-0.064l0.224-0.16 0.096-0.128v-0.032l29.216-29.184C160.64 398.24 160 391.2 160 384c0-7.2 0.64-14.208 1.088-21.312l-29.184-29.184-0.032-0.032-0.096-0.128-0.192-0.192-0.032-0.032L76.8 278.4c4.704-19.328 11.008-38.464 18.4-57.344 8.128-20.704 17.344-41.216 28.8-61.056 11.456-19.84 24.576-38.08 38.464-55.424 12.672-15.872 26.048-30.88 40.48-44.64l74.72 20.032h0.064l0.224 0.064 0.16 0.064h0.064l39.36 10.56c12-7.936 24.576-14.912 37.504-21.376l10.656-39.712v-0.224l0.096-0.224v-0.032l20.064-74.752c19.104-5.6 38.784-9.728 58.88-12.736a447.68 447.68 0 0 1 67.2-5.6c22.976 0 45.28 2.24 67.296 5.6a442.56 442.56 0 0 1 58.88 12.736l20.032 74.752 0.064 0.256 0.064 0.192 10.624 39.68c12.928 6.496 25.504 13.504 37.44 21.44l39.456-10.56v-0.032l0.192-0.032 0.224-0.064h0.064l74.752-20.032c14.4 13.76 27.808 28.768 40.48 44.64A449.92 449.92 0 0 1 900 160c11.456 19.84 20.64 40.32 28.768 61.056 7.424 18.88 13.728 37.984 18.432 57.344l-54.72 54.72h-0.032z"  horiz-adv-x="1024" />

    
    <glyph glyph-name="jujiao1" unicode="&#58901;" d="M895.512 230.606c10.587 0 19.643-3.757 27.113-11.25 7.52-7.503 11.25-16.526 11.25-27.073v-115.082c0-31.753-11.239-58.826-33.694-81.326-22.472-22.5-49.567-33.75-81.337-33.75H703.796c-10.61 0-19.632 3.752-27.119 11.363-7.503 7.385-11.266 16.526-11.266 27.073 0 10.546 3.763 19.575 11.266 27.073 7.487 7.498 16.51 11.25 27.119 11.25h115.048c10.58 0 19.642 3.752 27.107 11.25 7.526 7.498 11.25 16.52 11.25 27.185V192.283c0 10.66 3.74 19.688 11.26 27.068 7.482 7.616 16.527 11.368 27.125 11.368l-0.074-0.113zM205.241 805.763h115.03c10.587 0 19.649-3.752 27.102-11.25 7.538-7.504 11.261-16.527 11.261-27.074 0-10.665-3.723-19.687-11.26-27.073-7.454-7.616-16.516-11.362-27.097-11.362h-115.03c-10.604 0-19.649-3.634-27.113-11.25-7.538-7.386-11.278-16.527-11.278-27.073v-114.964c0-10.66-3.735-19.688-11.262-27.186-7.48-7.498-16.515-11.25-27.095-11.25-10.598 0-19.632 3.752-27.113 11.25-7.52 7.498-11.261 16.527-11.261 27.186V690.68c0 31.758 11.228 58.826 33.705 81.326 22.472 22.5 49.579 33.75 81.338 33.75h0.073z m-76.686-575.157c10.586 0 19.62-3.757 27.096-11.25 7.537-7.503 11.266-16.526 11.266-27.073v-115.082c0-10.547 3.724-19.57 11.262-27.067 7.481-7.498 16.515-11.25 27.095-11.25h115.06c10.58 0 19.631-3.752 27.112-11.25 7.52-7.498 11.25-16.527 11.25-27.186 0-10.547-3.73-19.575-11.25-27.073-7.481-7.498-16.532-11.25-27.112-11.25h-115.06c-31.758 0-58.837 11.25-81.326 33.75-22.477 22.387-33.705 49.573-33.705 81.326V192.165c0 10.547 3.724 19.687 11.25 27.186 7.487 7.503 16.526 11.25 27.096 11.25h-0.034z m575.24 575.157h115.049c31.77 0 58.865-11.25 81.337-33.638 22.455-22.5 33.694-49.573 33.694-81.326v-115.082c0-10.547-3.73-19.688-11.25-27.068-7.47-7.616-16.526-11.25-27.113-11.25-10.58 0-19.642 3.634-27.106 11.25-7.527 7.38-11.25 16.521-11.25 27.068V690.799c0 10.547-3.741 19.57-11.267 27.067-7.476 7.504-16.52 11.25-27.118 11.25H703.739c-10.597 0-19.648 3.752-27.112 11.25-7.52 7.504-11.261 16.527-11.261 27.073 0 10.665 3.74 19.688 11.26 27.186 7.465 7.498 16.516 11.25 27.113 11.25l0.057-0.112z"  horiz-adv-x="1024" />

    
    <glyph glyph-name="jujiao2" unicode="&#58903;" d="M928.012359 213.747641c7.514041-7.492855 11.242814-16.511117 11.242813-27.047724v-114.977545c0-31.729876-11.22869-58.7776-33.686069-81.256165-22.457379-22.478566-49.540414-33.721379-81.298537-33.721379h-115.005794c-10.600166 0-19.618428 3.742897-27.10422 11.355806-7.499917 7.3728-11.264 16.511117-11.264 27.047725s3.764083 19.561931 11.264 27.047724c7.485793 7.485793 16.504055 11.242814 27.10422 11.242814h115.005794c10.571917 0 19.632552 3.742897 27.097158 11.235751 7.521103 7.492855 11.242814 16.511117 11.242814 27.160718v114.864551c0 10.6496 3.742897 19.674924 11.256938 27.047724 7.478731 7.605848 16.525241 11.355807 27.118345 11.355807l-0.077683-0.112993c10.578979 0 19.632552-3.757021 27.104221-11.242814zM314.756414 811.255172c10.578979 0 19.632552-3.749959 27.083034-11.242813C349.381738 792.512441 353.103448 783.487117 353.103448 772.95051c0-10.663724-3.72171-19.681986-11.256938-27.061848-7.443421-7.61291-16.504055-11.355807-27.075972-11.355807h-114.970483c-10.593103 0-19.632552-3.636966-27.097158-11.242814-7.535228-7.386924-11.271062-16.525241-11.271063-27.061848V581.314207c0-10.656662-3.735834-19.674924-11.256937-27.174841C142.703228 546.64651 133.670841 542.896552 123.098924 542.896552c-10.593103 0-19.62549 3.749959-27.097158 11.242814C88.480662 561.639283 84.744828 570.664607 84.744828 581.314207V696.228193c0 31.744 11.221628 58.798786 33.686069 81.284414C140.888276 800.005297 167.978372 811.255172 199.722372 811.255172h0.070621L314.763476 811.255172zM150.132524 213.860634c7.528166-7.499917 11.256938-16.525241 11.256938-27.061848v-115.026979c0-10.543669 3.72171-19.561931 11.256938-27.061848 7.485793-7.485793 16.511117-11.242814 27.090097-11.242814H314.756414c10.571917 0 19.62549-3.742897 27.10422-11.242814 7.514041-7.492855 11.242814-16.525241 11.242814-27.174841 0-10.543669-3.728772-19.561931-11.242814-27.061849-7.485793-7.492855-16.525241-11.242814-27.10422-11.242813H199.736497c-31.751062 0-58.819972 11.242814-81.298538 33.735503-22.471503 22.379697-33.693131 49.547476-33.693131 81.284414V186.685793c0 10.543669 3.72171 19.681986 11.242813 27.174841 7.485793 7.499917 16.525241 11.242814 27.090097 11.242814h-0.03531c10.586041 0.007062 19.611366-3.742897 27.090096-11.235751z m674.159228 597.281545c31.751062 0 58.827034-11.242814 81.284414-33.62251 22.443255-22.49269 33.679007-49.554538 33.679006-81.284414v-115.041103c0-10.536607-3.728772-19.674924-11.242813-27.047724C920.54069 546.519393 911.494179 542.896552 900.908138 542.896552c-10.578979 0-19.632552 3.629903-27.090097 11.242814-7.521103 7.379862-11.242814 16.518179-11.242813 27.054786v115.041103c0 10.536607-3.742897 19.554869-11.264 27.047724-7.471669 7.499917-16.511117 11.249876-27.104221 11.249876h-114.970483c-10.586041 0-19.632552 3.742897-27.090096 11.242814C674.632386 753.275586 670.896552 762.293848 670.896552 772.837517c0 10.663724 3.742897 19.674924 11.256938 27.174842C689.611034 807.505214 698.650483 811.255172 709.243586 811.255172l0.056497-0.112993h114.984607zM512 384m-81.213793 0a81.213793 81.213793 0 1 1 162.427586 0 81.213793 81.213793 0 1 1-162.427586 0Z"  horiz-adv-x="1024" />

    
    <glyph glyph-name="guangquanjian" unicode="&#59112;" d="M512.4096-126.1568c-136.3968 0-264.3968 53.0432-360.8576 149.504C55.0912 119.808 2.048 248.0128 2.048 384.2048S55.0912 648.8064 151.552 745.0624C248.0128 841.5232 376.0128 894.5664 512.4096 894.5664s264.3968-53.0432 360.8576-149.504c96.4608-96.4608 149.504-224.4608 149.504-360.8576s-53.0432-264.3968-149.504-360.8576c-96.4608-96.4608-224.4608-149.504-360.8576-149.504z m0 987.7504c-263.168 0-477.3888-214.2208-477.3888-477.3888S249.2416-93.184 512.4096-93.184s477.3888 214.2208 477.3888 477.3888c0 263.3728-214.2208 477.3888-477.3888 477.3888z m0 0M930.6112 104.2432c-8.192 0-15.1552 5.9392-16.384 14.336l-11.6736 86.4256c-6.3488 47.104-23.1424 125.1328-37.4784 174.2848-13.9264 47.5136-44.6464 116.5312-67.1744 150.528-22.7328 34.2016-67.9936 86.016-98.9184 113.0496l-58.7776 51.6096 21.7088 24.7808 58.7776-51.6096c33.3824-29.2864 80.2816-82.944 104.6528-119.6032 24.3712-36.864 56.5248-108.544 71.2704-159.5392 14.7456-50.3808 31.9488-130.6624 38.5024-178.9952l11.6736-86.4256c1.2288-9.0112-5.12-17.2032-14.1312-18.432-0.6144-0.4096-1.4336-0.4096-2.048-0.4096z m0 0M949.6576 598.2208c-2.048 0-4.3008 0.4096-6.144 1.2288l-80.6912 32.9728c-43.8272 18.0224-120.0128 42.5984-169.7792 54.6816-48.128 11.8784-123.2896 19.6608-164.0448 17.2032-40.96-2.4576-108.3392-15.7696-147.456-29.0816l-74.1376-25.1904c-8.6016-2.8672-18.0224 1.6384-20.8896 10.24-2.8672 8.6016 1.6384 18.0224 10.24 20.8896l74.1376 25.1904c41.984 14.336 112.0256 28.0576 155.8528 30.72 44.2368 2.6624 122.0608-5.3248 173.8752-18.0224 50.9952-12.4928 129.2288-37.6832 174.2848-56.1152l80.6912-32.9728c8.3968-3.4816 12.4928-13.1072 9.0112-21.504-2.2528-6.144-8.192-10.24-14.9504-10.24z m0 0M179.8144 339.7632L147.456 346.112l15.1552 76.5952c8.6016 43.4176 31.744 111.0016 51.4048 150.528 19.6608 39.5264 65.7408 103.2192 102.6048 141.5168 36.2496 37.888 97.28 92.9792 135.7824 122.88l69.0176 53.4528c7.168 5.5296 17.6128 4.3008 23.1424-2.8672 5.5296-7.168 4.3008-17.6128-2.8672-23.1424l-69.0176-53.4528c-37.4784-29.0816-96.8704-82.7392-132.3008-119.6032-34.4064-35.84-78.6432-96.8704-96.8704-133.5296-18.2272-36.6592-40.5504-101.7856-48.5376-142.1312l-15.1552-76.5952z m0 0M373.76 45.056c-3.8912 0-7.7824 1.4336-10.8544 4.096l-58.7776 51.6096c-33.3824 29.2864-80.2816 82.944-104.6528 119.6032-24.3712 36.864-56.5248 108.544-71.2704 159.5392-14.7456 50.3808-31.9488 130.6624-38.5024 178.9952L77.824 645.5296l32.5632 4.5056 11.6736-86.4256c6.3488-47.104 23.1424-125.1328 37.4784-174.2848 13.9264-47.5136 44.6464-116.5312 67.1744-150.528 22.7328-34.2016 67.9936-86.016 98.9184-113.0496l58.7776-51.6096c6.7584-5.9392 7.5776-16.384 1.4336-23.1424-2.8672-3.8912-7.3728-5.9392-12.0832-5.9392z m0 0M478.8224 30.9248c-45.2608 0-109.9776 7.5776-154.8288 18.6368-50.9952 12.4928-129.2288 37.6832-174.2848 56.1152l-80.6912 32.9728c-8.3968 3.4816-12.4928 13.1072-9.0112 21.504 3.4816 8.3968 13.1072 12.4928 21.504 9.0112L162.2016 136.192c43.8272-18.0224 120.0128-42.5984 169.7792-54.6816 48.128-11.8784 123.2896-19.6608 164.0448-17.2032 40.96 2.4576 108.3392 15.7696 147.456 29.0816l74.1376 25.1904c8.6016 2.8672 18.0224-1.6384 20.8896-10.24 2.8672-8.6016-1.6384-18.0224-10.24-20.8896l-74.1376-25.1904c-41.984-14.336-112.0256-28.0576-155.8528-30.72-6.3488-0.6144-12.6976-0.6144-19.456-0.6144z m0 0M503.3984-122.6752l-20.0704 26.0096 69.0176 53.4528c37.4784 29.0816 96.8704 82.7392 132.3008 119.6032 34.4064 35.84 78.6432 96.8704 96.8704 133.5296 18.2272 36.6592 40.5504 101.7856 48.5376 142.1312l15.1552 76.5952c1.8432 9.0112 10.4448 14.7456 19.456 12.9024 9.0112-1.8432 14.7456-10.4448 12.9024-19.456l-15.1552-76.5952c-8.6016-43.4176-31.744-111.0016-51.4048-150.528-19.6608-39.5264-65.7408-103.2192-102.6048-141.5168-36.2496-37.888-97.28-92.9792-135.7824-122.88l-69.2224-53.248z m0 0M344.2688 411.8528h337.5104v-71.0656H344.2688z"  horiz-adv-x="1024" />

    
    <glyph glyph-name="guangquanjia" unicode="&#59114;" d="M512.4096-126.1568c-136.3968 0-264.3968 53.0432-360.8576 149.504C55.0912 119.808 2.048 248.0128 2.048 384.2048S55.0912 648.8064 151.552 745.0624C248.0128 841.5232 376.0128 894.5664 512.4096 894.5664s264.3968-53.0432 360.8576-149.504c96.4608-96.4608 149.504-224.4608 149.504-360.8576s-53.0432-264.3968-149.504-360.8576c-96.4608-96.4608-224.4608-149.504-360.8576-149.504z m0 987.7504c-263.168 0-477.3888-214.2208-477.3888-477.3888S249.2416-93.184 512.4096-93.184s477.3888 214.2208 477.3888 477.3888c0 263.3728-214.2208 477.3888-477.3888 477.3888z m0 0M930.6112 104.2432c-8.192 0-15.1552 5.9392-16.384 14.336l-11.6736 86.4256c-6.3488 47.104-23.1424 125.1328-37.4784 174.2848-13.9264 47.5136-44.6464 116.5312-67.1744 150.528-22.7328 34.2016-67.9936 86.016-98.9184 113.0496l-58.7776 51.6096 21.7088 24.7808 58.7776-51.6096c33.3824-29.2864 80.2816-82.944 104.6528-119.6032 24.3712-36.864 56.5248-108.544 71.2704-159.5392 14.7456-50.3808 31.9488-130.6624 38.5024-178.9952l11.6736-86.4256c1.2288-9.0112-5.12-17.2032-14.1312-18.432-0.6144-0.4096-1.4336-0.4096-2.048-0.4096z m0 0M949.6576 598.2208c-2.048 0-4.3008 0.4096-6.144 1.2288l-80.6912 32.9728c-43.8272 18.0224-120.0128 42.5984-169.7792 54.6816-48.128 11.8784-123.2896 19.6608-164.0448 17.2032-40.96-2.4576-108.3392-15.7696-147.456-29.0816l-74.1376-25.1904c-8.6016-2.8672-18.0224 1.6384-20.8896 10.24-2.8672 8.6016 1.6384 18.0224 10.24 20.8896l74.1376 25.1904c41.984 14.336 112.0256 28.0576 155.8528 30.72 44.2368 2.6624 122.0608-5.3248 173.8752-18.0224 50.9952-12.4928 129.2288-37.6832 174.2848-56.1152l80.6912-32.9728c8.3968-3.4816 12.4928-13.1072 9.0112-21.504-2.2528-6.144-8.192-10.24-14.9504-10.24z m0 0M179.8144 339.7632L147.456 346.112l15.1552 76.5952c8.6016 43.4176 31.744 111.0016 51.4048 150.528 19.6608 39.5264 65.7408 103.2192 102.6048 141.5168 36.2496 37.888 97.28 92.9792 135.7824 122.88l69.0176 53.4528c7.168 5.5296 17.6128 4.3008 23.1424-2.8672 5.5296-7.168 4.3008-17.6128-2.8672-23.1424l-69.0176-53.4528c-37.4784-29.0816-96.8704-82.7392-132.3008-119.6032-34.4064-35.84-78.6432-96.8704-96.8704-133.5296-18.2272-36.6592-40.5504-101.7856-48.5376-142.1312l-15.1552-76.5952z m0 0M373.76 45.056c-3.8912 0-7.7824 1.4336-10.8544 4.096l-58.7776 51.6096c-33.3824 29.2864-80.2816 82.944-104.6528 119.6032-24.3712 36.864-56.5248 108.544-71.2704 159.5392-14.7456 50.3808-31.9488 130.6624-38.5024 178.9952L77.824 645.5296l32.5632 4.5056 11.6736-86.4256c6.3488-47.104 23.1424-125.1328 37.4784-174.2848 13.9264-47.5136 44.6464-116.5312 67.1744-150.528 22.7328-34.2016 67.9936-86.016 98.9184-113.0496l58.7776-51.6096c6.7584-5.9392 7.5776-16.384 1.4336-23.1424-2.8672-3.8912-7.3728-5.9392-12.0832-5.9392z m0 0M478.8224 30.9248c-45.2608 0-109.9776 7.5776-154.8288 18.6368-50.9952 12.4928-129.2288 37.6832-174.2848 56.1152l-80.6912 32.9728c-8.3968 3.4816-12.4928 13.1072-9.0112 21.504 3.4816 8.3968 13.1072 12.4928 21.504 9.0112L162.2016 136.192c43.8272-18.0224 120.0128-42.5984 169.7792-54.6816 48.128-11.8784 123.2896-19.6608 164.0448-17.2032 40.96 2.4576 108.3392 15.7696 147.456 29.0816l74.1376 25.1904c8.6016 2.8672 18.0224-1.6384 20.8896-10.24 2.8672-8.6016-1.6384-18.0224-10.24-20.8896l-74.1376-25.1904c-41.984-14.336-112.0256-28.0576-155.8528-30.72-6.3488-0.6144-12.6976-0.6144-19.456-0.6144z m0 0M503.3984-122.6752l-20.0704 26.0096 69.0176 53.4528c37.4784 29.0816 96.8704 82.7392 132.3008 119.6032 34.4064 35.84 78.6432 96.8704 96.8704 133.5296 18.2272 36.6592 40.5504 101.7856 48.5376 142.1312l15.1552 76.5952c1.8432 9.0112 10.4448 14.7456 19.456 12.9024 9.0112-1.8432 14.7456-10.4448 12.9024-19.456l-15.1552-76.5952c-8.6016-43.4176-31.744-111.0016-51.4048-150.528-19.6608-39.5264-65.7408-103.2192-102.6048-141.5168-36.2496-37.888-97.28-92.9792-135.7824-122.88l-69.2224-53.248z m0 0M681.7792 411.8528h-133.3248v133.12h-70.8608v-133.12h-133.3248v-71.0656h133.3248v-133.3248h70.8608v133.3248h133.3248z"  horiz-adv-x="1024" />

    
    <glyph glyph-name="add-focus" unicode="&#59247;" d="M506.88 76.79999999999995c-197.632 0-358.4 160.768-358.4 358.4s160.768 358.4 358.4 358.4 358.4-160.768 358.4-358.4-160.768-358.4-358.4-358.4z m0 675.84c-175.104 0-317.44-142.336-317.44-317.44s142.336-317.44 317.44-317.44 317.44 142.336 317.44 317.44-142.336 317.44-317.44 317.44zM820.736-69.63199999999995c-8.704 0-16.896 4.096-22.528 11.264l-95.744 126.976c-9.216 12.288-6.656 30.208 5.632 39.424 12.288 9.216 30.208 6.656 39.424-5.632l95.744-126.976c9.216-12.288 6.656-30.208-5.632-39.424-5.12-4.096-10.752-5.632-16.896-5.632zM651.264 393.728H362.496c-5.632 0-10.24 4.608-10.24 10.24v35.84c0 5.632 4.608 10.24 10.24 10.24h288.256c5.632 0 10.24-4.608 10.24-10.24v-35.84c0.512-5.632-4.096-10.24-9.728-10.24zM534.016 569.856V281.6c0-5.632-4.608-10.24-10.24-10.24h-35.84c-5.632 0-10.24 4.608-10.24 10.24V569.856c0 5.632 4.608 10.24 10.24 10.24h35.84c5.632 0 10.24-4.608 10.24-10.24z"  horiz-adv-x="1024" />

    
    <glyph glyph-name="reduce-focus" unicode="&#59248;" d="M506.88 76.79999999999995c-197.632 0-358.4 160.768-358.4 358.4s160.768 358.4 358.4 358.4 358.4-160.768 358.4-358.4-160.768-358.4-358.4-358.4z m0 675.84c-175.104 0-317.44-142.336-317.44-317.44s142.336-317.44 317.44-317.44 317.44 142.336 317.44 317.44-142.336 317.44-317.44 317.44zM820.736-69.63199999999995c-8.704 0-16.896 4.096-22.528 11.264l-95.744 126.976c-9.216 12.288-6.656 30.208 5.632 39.424 12.288 9.216 30.208 6.656 39.424-5.632l95.744-126.976c9.216-12.288 6.656-30.208-5.632-39.424-5.12-4.096-10.752-5.632-16.896-5.632zM651.264 393.728H362.496c-5.632 0-10.24 4.608-10.24 10.24v35.84c0 5.632 4.608 10.24 10.24 10.24h288.256c5.632 0 10.24-4.608 10.24-10.24v-35.84c0.512-5.632-4.096-10.24-9.728-10.24z"  horiz-adv-x="1024" />

    
    <glyph glyph-name="voicefill1" unicode="&#58900;" d="M512 190.464c105.984 0 192 86.016 192 192v256c0 105.984-86.016 192-192 192S320 743.936 320 637.952v-256c0-105.472 86.016-191.488 192-191.488z m352.256 225.792v128c0 17.92-14.336 31.744-31.744 31.744s-31.744-14.336-31.744-31.744v-128c0-160.256-129.024-290.304-287.744-290.304-158.72 0-287.744 130.56-287.744 290.304v128c0 17.92-14.336 31.744-31.744 31.744s-31.744-14.336-31.744-31.744v-128c0-184.832 140.8-336.384 320-352.768V0H287.744c-17.92 0-31.744-14.336-31.744-31.744s14.336-31.744 31.744-31.744h448c17.92 0 31.744 14.336 31.744 31.744s-14.336 31.744-31.744 31.744h-192v63.488c179.2 16.384 320.512 167.936 320.512 352.768zM860.16 825.856L112.128-36.352c-2.048-2.56-3.072-5.632-2.56-8.704 1.024-7.168 7.168-21.504 21.504-24.064 4.096-1.024 12.8 1.024 15.36 3.584l742.4 865.792c2.048 2.56 4.096 7.168 3.584 10.752-2.048 10.24-10.24 16.896-20.48 18.944-4.096 0.512-9.216-1.536-11.776-4.096z"  horiz-adv-x="1024" />

    
    <glyph glyph-name="kaiqishexiangtou1" unicode="&#58899;" d="M872.818898 740.787402v-716.934384H88.692913V740.787402h784.125985m0 87.349081H88.692913c-48.377953 0-87.349081-38.971129-87.349081-87.349081v-717.6063c0-48.377953 38.971129-87.349081 87.349081-87.349081h784.125985c48.377953 0 87.349081 38.971129 87.349081 87.349081V740.787402c0 48.377953-39.643045 87.349081-87.349081 87.349081zM1320.986877 731.380577c4.703412-5.375328 7.391076-12.766404 7.391076-19.485564l10.07874-681.322835c0-17.469816-14.110236-32.251969-31.580053-32.251968-7.391076 0-14.110236 2.015748-20.15748 6.71916l-385.67979 294.971129-1.343832 131.023622 376.272966 305.721785c14.110236 10.750656 34.267717 8.734908 45.018373-5.375329z m-86.677166-153.19685l-237.858267-193.511811v-37.627297l243.905511-186.120734-6.047244 417.259842z"  horiz-adv-x="1343" />

    
    <glyph glyph-name="kaiqishexiangtou" unicode="&#59003;" d="M960.00032 652.416V32a96 96 0 0 0-96-96H243.58432l96 96H864.00032V556.416l96 96zM864.00032 832l3.968-0.128L772.09632 736H96.00032v-676.032L31.36032-4.736a89.728 89.728 0 0 1-14.08-18.24A95.52 95.52 0 0 0 0.00032 32V736a96 96 0 0 0 96 96h768zM1321.28032 731.616a32 32 0 0 0 7.168-19.744l9.824-681.536a32 32 0 0 0-51.424-25.92l-385.792 294.848-1.024 131.04 376.224 305.92a32 32 0 0 0 45.024-4.608z m-86.912-153.184l-237.984-193.504 0.32-37.92 243.68-186.24-6.016 417.664zM995.282951 895.836882m33.941126-33.941125l0 0q33.941125-33.941125 0-67.882251l-882.469263-882.469263q-33.941125-33.941125-67.882251 0l0 0q-33.941125 33.941125 0 67.882251l882.469263 882.469263q33.941125 33.941125 67.882251 0Z"  horiz-adv-x="1344" />

    
    <glyph glyph-name="shitu" unicode="&#58902;" d="M384 832v-320H64V832h320m0 64H64C32 896 0 864 0 832v-320c0-38.4 25.6-64 64-64h320c38.4 0 64 25.6 64 64V832c0 32-25.6 64-64 64zM384 256v-256H128v256h256m0 64H128c-38.4 0-64-25.6-64-64v-256c0-38.4 25.6-64 64-64h256c38.4 0 64 25.6 64 64v256c0 38.4-25.6 64-64 64zM896 256v-256h-256v256h256m0 64h-256c-38.4 0-64-25.6-64-64v-256c0-38.4 25.6-64 64-64h256c38.4 0 64 25.6 64 64v256c0 38.4-25.6 64-64 64zM896 768v-256h-256V768h256m0 64h-256c-38.4 0-64-25.6-64-64v-256c0-38.4 25.6-64 64-64h256c38.4 0 64 25.6 64 64V768c0 38.4-25.6 64-64 64z"  horiz-adv-x="1024" />

    
    <glyph glyph-name="quyu" unicode="&#58952;" d="M1047.669986-73.376956h-21.485064V541.678521a109.246088 109.246088 0 0 1-109.246088 111.795163h-279.305833V783.840683A111.43101 111.43101 0 0 1 527.658606 895.635846H160.955903a109.246088 109.246088 0 0 1-112.523471-109.246088v-859.766714H27.311522a27.311522 27.311522 0 0 1 0-54.623044h1019.630157a27.311522 27.311522 0 0 1 0 54.623044zM103.055477 783.840683A57.900427 57.900427 0 0 0 160.955903 841.376956h364.153628a57.900427 57.900427 0 0 0 57.172119-57.536273v-857.217639H103.055477z m534.577524-184.625889h276.392604a57.900427 57.900427 0 0 0 57.536273-57.536273v-615.055477h-333.928877z m-172.972973 54.623044H221.769559a27.311522 27.311522 0 0 1 0-54.623044h242.890469a27.311522 27.311522 0 0 1 0 54.623044z m0-218.492177H221.769559a27.311522 27.311522 0 0 1 0-54.623044h242.890469a27.311522 27.311522 0 0 1 0 54.623044z m0-218.492176H221.769559a27.311522 27.311522 0 1 1 0-54.623044h242.890469a27.311522 27.311522 0 0 1 0 54.623044z m388.551921 218.492176h-97.229019a27.311522 27.311522 0 0 1 0-54.623044h97.229019a27.311522 27.311522 0 0 1 0 54.623044z m0-218.492176h-97.229019a27.311522 27.311522 0 0 1 0-54.623044h97.229019a27.311522 27.311522 0 0 1 0 54.623044z"  horiz-adv-x="1074" />

    
    <glyph glyph-name="zhongmingming" unicode="&#58959;" d="M122.3 69.43c4.01 0 8.07 0.52 12.08 1.57l113.91 29.97a46.82 46.82 0 0 1 22.07 13.04l526.82 553.54c17.85 18.75 17.12 48.53-1.63 66.37L705.98 819.2c-18.75 17.85-48.53 17.12-66.38-1.63L112.78 264.04a46.898 46.898 0 0 1-11.93-22.67L76.49 126.11c-3.39-16.05 1.67-32.39 13.56-43.71 8.89-8.46 20.38-12.97 32.25-12.97z m39.45 154.35l409.86 430.65 65.92-62.76 34.87 36.63-65.92 62.77 67.7 71.13 66-62.84-512.43-538.42-83.95-22.09 17.95 84.93zM916.93-0.91H107.08c-17.46 0-31.61-14.15-31.61-31.61s14.15-31.61 31.61-31.61h809.85c17.46 0 31.61 14.15 31.61 31.61s-14.15 31.61-31.61 31.61z"  horiz-adv-x="1024" />

    
    <glyph glyph-name="cejiantou2" unicode="&#59858;" d="M256 128h512V640L256 128z"  horiz-adv-x="1024" />

    
    <glyph glyph-name="guanbi" unicode="&#58888;" d="M594.39559111 394.87412148L1021.39904 821.8775703700001c21.55406222 21.55406222 21.55406222 57.08913778 0 78.6432l-2.33016889 2.33016888c-21.55406222 21.55406222-57.08913778 21.55406222-78.6432 0L513.42222222 475.26494815 86.41877334 902.85093925c-21.55406222 21.55406222-57.08913778 21.55406222-78.6432 0l-2.3301689-2.33016888c-22.13660445-21.55406222-22.13660445-57.08913778 0-78.6432l427.0034489-427.00344889L5.44540444-32.12932740999997c-21.55406222-21.55406222-21.55406222-57.08913778 0-78.6432l2.3301689-2.33016889c21.55406222-21.55406222 57.08913778-21.55406222 78.6432 0L513.42222222 313.90075259 940.42567111-113.10269630000005c21.55406222-21.55406222 57.08913778-21.55406222 78.6432 0l2.33016889 2.33016889c21.55406222 21.55406222 21.55406222 57.08913778 0 78.6432L594.39559111 394.87412148z"  horiz-adv-x="1024" />

    
    <glyph glyph-name="baocun" unicode="&#58883;" d="M913.789215-128h-803.881473a67.67957 67.67957 0 0 0-67.039877 68.233971V827.766029a67.700893 67.700893 0 0 0 67.039877 68.233971h803.881473a67.700893 67.700893 0 0 0 67.0612-68.233971v-887.468088a67.67957 67.67957 0 0 0-67.0612-68.297941zM725.036992 810.494305H298.574672v-255.877392h426.46232V810.494305z m170.584928 0h-85.292464l-0.234554-272.935885a67.359723 67.359723 0 0 0-66.37886-68.233971H279.383868a67.253108 67.253108 0 0 0-66.357537 68.233971L213.282208 810.494305H127.989744v-852.92464h767.632176V810.494305zM267.848062 299.102014h466.592424a44.117527 44.117527 0 0 0 0-85.569665H267.848062a44.13885 44.13885 0 0 0 0 85.569665z"  horiz-adv-x="1024" />

    
    <glyph glyph-name="refresh" unicode="&#58884;" d="M968.60387555 529.5348243000001L762.47495111 529.5348243000001c-26.29680545 0-47.56724243 21.30660315-47.56724243 47.56954832 0 26.26076065 21.27165061 47.56724243 47.56724243 47.56724243l82.74757404 0c-74.64295538 105.47230341-197.38593659 174.41678222-336.4460468 174.41678223-227.68541392 0-412.26027615-184.57607585-412.26027616-412.2578489 0-227.6842003 184.57607585-412.25906252 412.26027616-412.25906251 227.6842003 0 412.25906252 184.57607585 412.2590625 412.25906251 0 26.26076065 21.27055835 47.56724243 47.56615017 47.56724244 26.26294518 0 47.57076195-21.30660315 47.57076196-47.56724244 0-280.22586785-227.19146667-507.39670282-507.39670281-507.39670281-280.20887703 0-507.39791645 227.16962133-507.39791645 507.39670281 0 280.22465422 227.18903941 507.39548918 507.39791645 507.39548919 170.06227911 0 320.27079111-83.84554477 412.25906251-212.30629926l0 85.45688084c0 26.26294518 21.27055835 47.56845605 47.56615017 47.56845605 26.26294518 0 47.57076195-21.30551088 47.57076195-47.56845605l0-190.27285334C1016.17451615 550.84130608 994.86439348 529.5348243000001 968.60387555 529.5348243000001Z"  horiz-adv-x="1024" />

    
    <glyph glyph-name="shipin1" unicode="&#58953;" d="M731.428571 10.971429H73.142857c-43.885714 0-73.142857 36.571429-73.142857 73.142857v585.142857c0 43.885714 36.571429 73.142857 73.142857 73.142857h658.285714c43.885714 0 73.142857-36.571429 73.142858-73.142857v-585.142857c0-43.885714-29.257143-73.142857-73.142858-73.142857zM1031.314286 84.114286L621.714286 362.057143l409.6 307.2z"  horiz-adv-x="1031" />

    
    <glyph glyph-name="shezhi" unicode="&#58912;" d="M933.6832 384c0 59.869867 37.614933 110.592 90.3168 130.8672a525.1072 525.1072 0 0 1-57.344 138.581333A140.014933 140.014933 0 0 0 781.653333 838.656 527.428267 527.428267 0 0 1 642.798933 896 140.424533 140.424533 0 0 0 512 805.6832C452.130133 805.6832 401.408 843.298133 381.1328 896a525.1072 525.1072 0 0 1-138.581333-57.344c22.9376-51.677867 13.585067-114.0736-28.672-156.330667-42.325333-42.325333-104.8576-51.677867-156.330667-28.808533A521.557333 521.557333 0 0 1 0 514.8672 140.424533 140.424533 0 0 0 90.3168 384c0-59.869867-37.614933-110.592-90.3168-130.8672 12.561067-49.3568 32.017067-95.8464 57.344-138.581333a140.014933 140.014933 0 0 0 185.002667-185.207467c42.939733-25.326933 89.429333-44.782933 138.786133-57.344A140.424533 140.424533 0 0 0 512-37.6832c59.869867 0 110.592-37.614933 130.8672-90.3168a525.1072 525.1072 0 0 1 138.581333 57.344c-22.9376 51.677867-13.585067 114.0736 28.672 156.330667a140.424533 140.424533 0 0 0 156.330667 28.808533A521.557333 521.557333 0 0 1 1024 253.1328 140.219733 140.219733 0 0 0 933.6832 384zM512 243.370667a140.629333 140.629333 0 1 0 0.068267 281.258666A140.629333 140.629333 0 0 0 512 243.370667z"  horiz-adv-x="1024" />

    
    <glyph glyph-name="sigongge" unicode="&#58922;" d="M328.704 896C362.496 896 391.168 884.224 414.72 860.672c23.552-23.552 35.328-52.736 35.328-86.528v-207.872c0-33.792-11.776-62.976-35.328-86.528-23.552-23.552-52.224-35.328-86.528-35.328H121.856c-33.792 0-62.464 11.776-86.016 35.328S0 531.968 0 566.272V774.144c0 34.304 11.776 62.976 35.328 86.528C58.88 884.224 87.552 896 121.856 896h206.848z m573.44 0c33.792 0 62.464-11.776 86.016-35.328 23.552-23.552 35.328-52.736 35.328-86.528v-207.872c0-33.792-11.776-62.976-35.328-86.528-23.552-23.552-52.224-35.328-86.016-35.328h-210.432c-33.792 0-62.464 11.776-86.016 35.328s-35.328 52.736-35.328 86.528V774.144c0 34.304 11.776 62.976 35.328 86.528 23.552 23.552 52.224 35.328 86.016 35.328h210.432z m-573.44-571.904c33.792 0 62.464-11.776 86.528-35.328 23.552-23.552 35.328-52.736 35.328-86.528v-207.872c0-33.792-11.776-62.976-35.328-86.528-23.552-23.552-52.224-35.328-86.528-35.328H121.856c-33.792 0-62.464 11.776-86.016 35.328s-35.84 52.224-35.84 86.016v207.872c0 33.792 11.776 62.976 35.328 86.528 23.552 23.552 52.224 35.328 86.016 35.328 0.512 0.512 207.36 0.512 207.36 0.512z m573.44 0c33.792 0 62.464-11.776 86.016-35.328 23.552-23.552 35.328-52.736 35.328-86.528v-207.872c0-33.792-11.776-62.976-35.328-86.528-23.552-23.552-52.224-35.328-86.016-35.328h-210.432c-33.792 0-62.464 11.776-86.016 35.328s-35.328 52.736-35.328 86.528v207.872c0 33.792 11.776 62.976 35.328 86.528 23.552 23.552 52.224 35.328 86.016 35.328h210.432z"  horiz-adv-x="1024" />

    
    <glyph glyph-name="shipinhuiyi3" unicode="&#58979;" d="M480.3-12.6v63.7H85.7C30.6 51.1 0.4 82.4 0.4 135.3V755.8c0 52.9 30.2 84.3 85.3 84.3h852.8c55 0 85.2-31.5 85.2-84.3v-620.4c0-53-30.2-84.3-85.3-84.3H544.2v-63.7H746c18.4 0 33.3-14.3 33.3-32s-14.9-32-33.3-32H278.2c-18.4 0-33.3 14.3-33.3 32 0 17.6 14.8 32 33.3 32h202.1z m415.5 684.7c23.5 0 42.6 19.1 42.6 42.6s-19.1 42.6-42.6 42.6-42.6-19.1-42.6-42.6 19.1-42.6 42.6-42.6zM341.5 294.7c0-79.5 337.6-91.8 337.6 0 0 79.5-75.6 151.4-168.8 151.4-93.2 0-168.8-71.9-168.8-151.4z m258.7 262.4c0 50.3-40.7 91.1-90.9 91.1-50.3 0-91-40.8-91-91.1S459 466 509.2 466c24.1 0 47.3 9.6 64.3 26.7 17.1 17.1 26.7 40.3 26.7 64.4z m0 0"  horiz-adv-x="1024" />

    
    <glyph glyph-name="yun" unicode="&#58915;" d="M660.053333 896c-208.938667 0-379.733333-157.077333-394.56-356.010667C111.872 497.536 0 367.36 0 213.333333c0-181.674667 155.669333-330.944 352-341.333333h660.053333C1230.570667-128 1408 53.525333 1408 277.333333c0 215.765333-173.802667 391.466667-392.96 404.138667C950.4 808.448 816 896 660.053333 896z"  horiz-adv-x="1408" />

    
    <glyph glyph-name="shipin" unicode="&#58923;" d="M960 768H64C28.8 768 0 739.2 0 704v-640c0-35.2 28.8-64 64-64h896c35.2 0 64 28.8 64 64V704c0 35.2-28.8 64-64 64z m-313.28-424.608l-192.736-111.072c-38.496-22.176-69.952-3.968-69.92 40.448l0.192 222.464c0.032 44.416 31.52 62.56 69.984 40.32l192.544-111.392c38.464-22.24 38.432-58.592-0.064-80.768z"  horiz-adv-x="1024" />

    
    <glyph glyph-name="pengyouquan" unicode="&#58881;" d="M512 896c-18.618182 0-39.563636-2.327273-58.181818-2.327273-46.545455-4.654545-90.763636-16.290909-132.654546-32.581818 0 0 344.436364-339.781818 353.745455-353.745454V868.072727c-9.309091 4.654545-20.945455 6.981818-30.254546 9.309091C602.763636 889.018182 558.545455 896 512 896z m360.727273-148.945455c-13.963636 13.963636-27.927273 25.6-44.218182 37.236364-34.909091 27.927273-74.472727 51.2-118.690909 69.818182-41.890909 18.618182 2.327273-484.072727 0-500.363636l258.327273 256c-4.654545 9.309091-9.309091 18.618182-16.29091 27.927272-18.618182 41.890909-46.545455 79.127273-79.127272 109.381818z m114.036363-174.545454S644.654545 228.072727 633.018182 218.763636h365.381818c4.654545 9.309091 6.981818 20.945455 9.309091 30.254546 9.309091 44.218182 16.290909 88.436364 16.290909 134.981818 0 18.618182-2.327273 39.563636-2.327273 58.181818-6.981818 44.218182-18.618182 88.436364-34.909091 130.327273zM479.418182 181.527273l258.327273-256c9.309091 4.654545 18.618182 9.309091 27.927272 16.290909 37.236364 20.945455 74.472727 48.872727 107.054546 81.454545 13.963636 13.963636 25.6 27.927273 39.563636 44.218182 27.927273 37.236364 53.527273 76.8 69.818182 116.363636 0-2.327273-486.4-4.654545-502.690909-2.327272z m-132.654546 81.454545v-363.054545c9.309091-4.654545 20.945455-6.981818 32.581819-9.309091 41.890909-11.636364 86.109091-18.618182 132.654545-18.618182 18.618182 0 39.563636 2.327273 58.181818 2.327273 46.545455 4.654545 90.763636 16.290909 132.654546 32.581818 0 2.327273-346.763636 342.109091-356.072728 356.072727z m-34.909091 151.272727l-258.327272-256c4.654545-11.636364 9.309091-20.945455 16.290909-30.254545 20.945455-37.236364 48.872727-74.472727 81.454545-104.727273 13.963636-13.963636 27.927273-25.6 44.218182-37.236363 37.236364-27.927273 76.8-51.2 118.690909-69.818182-2.327273-2.327273-4.654545 481.745455-2.327273 498.036363zM18.618182 516.654545C6.981818 474.763636 0 430.545455 0 384c0-18.618182 2.327273-39.563636 2.327273-58.181818 4.654545-46.545455 16.290909-90.763636 34.909091-132.654546 0 0 342.109091 344.436364 353.745454 353.745455H27.927273c-4.654545-9.309091-6.981818-20.945455-9.309091-30.254546zM256 826.181818C216.436364 802.909091 181.527273 777.309091 148.945455 744.727273c-13.963636-13.963636-25.6-27.927273-39.563637-41.890909-27.927273-34.909091-51.2-74.472727-69.818182-116.363637-18.618182-41.890909 486.4 2.327273 500.363637 0l-258.327273 256c-6.981818-6.981818-16.290909-11.636364-25.6-16.290909z"  horiz-adv-x="1024" />

    
    <glyph glyph-name="bofang1" unicode="&#59094;" d="M512-128C229.235-128 0 101.235 0 384S229.235 896 512 896s512-229.235 512-512-229.235-512-512-512z m-85.248 257.498l307.034 230.284c17.024 12.762 17.024 33.434 0 46.196L426.752 636.262c-17.024 12.762-30.797 5.888-30.797-15.347v-476.07c0-21.287 13.799-28.109 30.797-15.36z"  horiz-adv-x="1024" />

    
    <glyph glyph-name="jiankong" unicode="&#58985;" d="M108.8 236.8V377.6L0 396.8v-448l108.8 38.4v153.6h172.8L358.4 256l-96 57.6-44.8-76.8H108.8zM1024 377.6L243.2 889.6H153.6l-121.6-192v-64l697.6-448 57.6 6.4L1024 377.6zM32 595.2v-102.4l704-441.6h64l32 32 32 96s-89.6-64-96-64C736 140.8 32 595.2 32 595.2z"  horiz-adv-x="1024" />

    
    <glyph glyph-name="wendang" unicode="&#58980;" d="M906.303169 583.304312s-93.715948 0.063169-132.092675 0.063169c-74.505974 0-86.262026 17.903377-86.262026 85.134961V879.31013l218.354701-296.005818zM692.327065 299.084468H329.016519c-22.99013 0-41.631584 18.644779-41.631584 41.634909 0 22.986805 18.641455 41.62826 41.631584 41.628259h363.310546c22.99013 0 41.62826-18.641455 41.62826-41.628259 0.003325-22.99013-18.63813-41.634909-41.62826-41.634909m0-208.13465H329.016519a41.624935 41.624935 0 1 0 0 83.259844h363.310546a41.634909 41.634909 0 0 0 36.052779-62.450701 41.624935 41.624935 0 0 0-36.052779-20.809143m217.274182 416.279273h-217.187741c-46.043429 0.046545-83.342961 37.382649-83.342961 83.422753V881.880104H194.496831c-45.913766-0.139636-83.047065-37.419221-83.003844-83.336312v-832.352415c-0.066494-45.900468 37.023584-83.193351 82.920727-83.379533h632.509507c45.933714 0.186182 83.04374 37.53226 82.924052 83.459325V505.107948c0 0.711481-0.209455 1.456208-0.249351 2.167688"  horiz-adv-x="1024" />

    
    <glyph glyph-name="11111-copy" unicode="&#58897;" d="M0 896h483.555556v-512H0zM0 327.11111100000005h483.555556v-455.111111H0zM540.444444 497.777778h483.555556v-625.777778H540.444444zM540.444444 896h483.555556v-341.333333H540.444444z"  horiz-adv-x="1024" />

    
    <glyph glyph-name="bofang" unicode="&#58904;" d="M893.035 432.178321C839.00765 466.300859 210.584253 867.240672 179.305261 887.145486 139.495634 912.737389 99.686007 878.614852 99.686007 838.805225v-909.934329c0-45.496716 42.653172-68.245075 76.775709-48.340262 45.496716 28.435448 676.763657 429.375262 716.573284 454.967165 34.122537 22.748358 34.122537 76.775709 0 96.680522z"  horiz-adv-x="1024" />

    
    <glyph glyph-name="icon-test" unicode="&#59029;" d="M23.978667 782.506667c0 49.322667 40.106667 89.514667 89.6 89.514666h771.669333c49.493333 0 89.6-40.106667 89.6-89.6v-771.669333c0-49.493333-40.106667-89.6-89.6-89.6H113.578667a89.6 89.6 0 0 0-89.6 89.6V782.421333z m68.949333 0v-771.754667c0-11.434667 9.216-20.736 20.650667-20.736h771.669333a20.650667 20.650667 0 0 1 20.736 20.736V782.421333a20.650667 20.650667 0 0 1-20.736 20.650667H113.578667a20.650667 20.650667 0 0 1-20.650667-20.650667zM462.848 433.152V617.984c0 19.114667 16.384 34.56 36.608 34.56 20.138667 0 36.522667-15.445333 36.522667-34.56v-184.832h184.832c19.114667 0 34.645333-16.384 34.645333-36.608a35.584 35.584 0 0 0-34.645333-36.522667H535.978667v-184.832a35.584 35.584 0 0 0-36.522667-34.645333 35.584 35.584 0 0 0-36.608 34.645333V360.021333H278.016a35.584 35.584 0 0 0-34.56 36.522667c0 20.224 15.445333 36.608 34.56 36.608h184.832z"  horiz-adv-x="1024" />

    
    <glyph glyph-name="shuliang" unicode="&#58918;" d="M845.913043 896a178.086957 178.086957 0 0 0 178.086957-178.086957v-667.826086a178.086957 178.086957 0 0 0-178.086957-178.086957H178.086957a178.086957 178.086957 0 0 0-178.086957 178.086957V717.913043a178.086957 178.086957 0 0 0 178.086957 178.086957h667.826086z m0-66.782609H178.086957a111.304348 111.304348 0 0 1-111.304348-111.304348v-667.826086a111.304348 111.304348 0 0 1 111.304348-111.304348h667.826086a111.304348 111.304348 0 0 1 111.304348 111.304348V717.913043a111.304348 111.304348 0 0 1-111.304348 111.304348z m-95.053913-406.706087v-77.022608H273.14087v77.022608h477.71826z"  horiz-adv-x="1024" />

    
    <glyph glyph-name="shaixuan" unicode="&#58944;" d="M562.176-11.776c-13.312 0-25.6 3.072-37.376 9.216l-101.888 56.832c-25.088 13.312-40.448 39.424-40.448 68.096V445.952c0 4.608-2.56 9.728-6.144 12.288L140.8 647.168l-2.56 3.072c-22.016 22.016-27.136 54.784-14.848 83.456s39.424 46.08 70.656 46.08H829.44c30.72 0 58.368-17.92 71.168-46.08s7.168-60.416-13.824-83.456l-3.072-3.072L645.12 456.192c-3.584-3.072-5.632-7.68-5.632-12.288v-377.856c0.512-43.52-34.304-77.824-77.312-77.824zM181.248 693.248l234.496-187.392c18.432-14.848 29.184-36.864 29.184-60.416v-323.584c0-5.632 2.56-11.264 7.68-13.824l101.888-55.808c4.608-2.56 10.752-2.56 15.872 0 4.608 2.56 7.68 8.192 7.68 13.824V443.392c0 23.552 10.24 45.568 28.672 60.416l235.008 189.44c3.584 4.608 4.096 11.264 1.536 16.384s-7.68 8.704-13.824 8.704H194.048c-6.144 0-11.264-3.072-13.824-8.704-3.072-5.632-2.048-11.776 1.024-16.384zM876.032 371.712H701.44c-16.896 0-30.72 13.824-30.72 30.72s13.824 30.72 30.72 30.72h174.592c16.896 0 30.72-13.824 30.72-30.72 0.512-16.896-13.312-30.72-30.72-30.72z m0-115.712H701.44c-16.896 0-30.72 13.824-30.72 30.72s13.824 30.72 30.72 30.72h174.592c16.896 0 30.72-13.824 30.72-30.72 0.512-16.896-13.312-30.72-30.72-30.72z m0-115.2H701.44c-16.896 0-30.72 13.824-30.72 30.72s13.824 30.72 30.72 30.72h174.592c16.896 0 30.72-13.824 30.72-30.72s-13.312-30.72-30.72-30.72z"  horiz-adv-x="1024" />

    
    <glyph glyph-name="rili" unicode="&#58880;" d="M844.338 705.968h-38.135v11.331c0 33.965-27.655 61.729-61.456 61.729h-0.907c-33.801 0-61.456-27.765-61.456-61.729v-11.331h-339.872v11.331c0 33.965-27.654 61.729-61.456 61.729h-0.935c-33.8 0-61.456-27.765-61.456-61.729v-11.331h-38.053c-33.801 0-61.456-27.793-61.456-61.704v-590.138c0-33.966 27.654-61.731 61.456-61.731h663.723c33.801 0 61.456 27.766 61.456 61.731v590.138c0 33.912-27.654 61.704-61.456 61.704zM706.968 717.3c0 20.41 16.517 37.036 36.874 37.036h0.907c20.329 0 36.874-16.627 36.874-37.036v-109.799c0-20.412-16.544-37.037-36.874-37.037h-0.907c-20.357 0-36.874 16.625-36.874 37.037v109.799zM243.251 717.3c0 20.41 16.516 37.036 36.874 37.036h0.935c20.301 0 36.874-16.627 36.874-37.036v-109.799c0-20.412-16.573-37.037-36.874-37.037h-0.935c-20.357 0-36.874 16.625-36.874 37.037v109.799zM844.338 41.75h-663.723c-6.667 0-12.292 5.735-12.292 12.375v433.895h688.305v-433.895c0-6.64-5.624-12.375-12.291-12.375zM258.659 399.645h113.4v-55.8h-113.4v55.8zM456.659 399.645h112.5v-55.8h-112.5v55.8zM653.759 399.645h110.7v-55.8h-110.7v55.8zM258.659 286.244h113.4v-54.9h-113.4v54.9zM456.659 286.244h112.5v-54.9h-112.5v54.9zM653.759 286.244h110.7v-54.9h-110.7v54.9zM258.659 175.54499999999996h113.4v-57.6h-113.4v57.6zM456.659 175.54499999999996h112.5v-57.6h-112.5v57.6zM653.759 175.54499999999996h110.7v-57.6h-110.7v57.6z"  horiz-adv-x="1024" />

    
    <glyph glyph-name="yuyintonghua" unicode="&#58911;" d="M708.16 219.84a87.936 87.936 0 0 1-69.44-32.832 138.24 138.24 0 0 0-43.84-32.416 144.064 144.064 0 0 0-57.76-12.576h-3.2c-120.096 1.92-260.064 141.792-261.952 263.136a142.816 142.816 0 0 0 12.544 59.936A138.176 138.176 0 0 0 316.896 508.8a87.264 87.264 0 0 1 32.8 66.944c0 66.752-101.824 152.896-122.048 170.592a77.248 77.248 0 0 1-67.744 22.624c-24.896-5.76-63.872-32.416-106.496-126.464a259.136 259.136 0 0 1-21.28-111.104c6.592-334.784 294.368-622.048 629.6-627.36h5.536a257.472 257.472 0 0 1 106.496 21.312C867.904-32 894.528 6.176 900.288 32a77.888 77.888 0 0 1-22.592 67.616c-17.248 18.56-103.488 119.2-169.536 120.256z m149.12-179.52c0-3.424-10.464-35.008-102.048-75.936a214.272 214.272 0 0 0-87.968-16.864h-5.536c-306.272 4.704-579.968 277.856-585.088 585.6a216.64 216.64 0 0 0 16.832 92.736c41.312 90.432 72.832 99.2 76.256 100.864 3.392 1.728 12.992 0 30.24-13.856C240.64 679.392 306.464 612.64 306.464 576.832c0-18.144-4.704-22.4-21.312-38.4a177.824 177.824 0 0 1-42.592-57.6 185.28 185.28 0 0 1-15.776-77.184c2.368-143.072 162.112-302.784 305.44-304.928h2.976c25.6 0.192 50.88 5.568 74.336 15.776a178.08 178.08 0 0 1 57.728 41.6c16 15.776 21.312 19.84 39.424 21.312 34.912 0 101.6-65.472 135.232-106.624 11.52-13.632 17.28-23.68 15.552-30.72l-0.224 0.224zM507.712 606.656a19.36 19.36 0 0 1-20.032-25.184c1.664-6.72 5.312-12.8 10.432-17.472 5.76-5.568 13.312-8.864 21.312-9.376a175.584 175.584 0 0 0 160.8-149.28c0.96-8.224 4.928-15.808 11.072-21.344 5.12-4.736 11.456-7.84 18.336-8.96a19.36 19.36 0 0 1 23.648 21.344 234.656 234.656 0 0 1-76.48 143.296 236.736 236.736 0 0 1-149.12 66.976z m483.712-205.152a585.28 585.28 0 0 1-180.64 307.296 587.584 587.584 0 0 1-320.768 154.816 19.36 19.36 0 0 1-22.784-22.624c1.28-7.68 5.088-14.656 10.88-19.84 5.216-4.928 11.84-8.128 18.944-9.152 106.24-15.04 205.248-62.72 283.296-136.48a516.16 516.16 0 0 0 158.24-270.4c1.6-7.008 5.312-13.344 10.656-18.112 5.76-5.536 13.312-8.864 21.312-9.408a19.36 19.36 0 0 1 20.864 23.904z m-170.4-15.584c5.472-5.184 12.512-8.416 20.032-9.152a19.168 19.168 0 0 1 21.28 23.872 409.76 409.76 0 0 1-127.776 224.544 411.52 411.52 0 0 1-234.304 110.272 19.168 19.168 0 0 1-21.312-23.264c1.408-7.424 5.216-14.176 10.88-19.2 5.376-5.056 12.256-8.288 19.584-9.152a342.976 342.976 0 0 0 195.52-91.904 341.28 341.28 0 0 0 105.856-186.816c1.312-7.36 4.768-13.984 10.24-19.2z"  horiz-adv-x="1024" />

    
    </font>
</defs>
</svg>
